<svg width="1440" height="1024" viewBox="0 0 1440 1024" fill="none" xmlns="http://www.w3.org/2000/svg">
<g clip-path="url(#clip0_80_12)">
<rect width="`" height="1024" fill="#D9D9D9"/>
<path opacity="0.5" d="M333.468 282.929C332.775 283.297 332.085 283.671 331.318 284.083C331.476 283.087 331.653 282.236 331.738 281.377C331.882 279.922 331.12 279.4 329.752 279.933C329.215 280.142 328.794 280.653 328.126 280.643C328.213 279.822 328.208 279.062 328.391 278.351C328.636 277.401 327.942 276.722 327.594 276.117C327.138 275.326 326.188 275.814 325.578 276.394C324.049 277.846 322.534 279.315 320.93 280.899C320.93 280.416 320.939 279.933 320.929 279.451C320.814 273.978 321.09 268.516 321.279 263.049C321.476 257.334 321.304 251.607 321.412 245.887C321.537 239.256 320.853 232.635 321.26 226.002C321.301 225.33 321.05 224.713 320.123 224.73C319.214 224.746 318.304 224.627 317.394 224.617C311.181 224.546 304.973 224.84 298.764 224.916C287.351 225.056 275.935 224.931 264.521 224.931C260.301 224.931 256.08 224.985 251.86 224.996C247.397 225.008 242.933 224.999 238.258 224.999C239.541 223.201 240.907 221.734 241.648 219.884C241.981 219.054 242.827 218.07 241.838 217.288C240.907 216.552 240.188 217.576 239.464 218.046C238.073 218.95 237.573 218.722 237.428 217.071C237.413 216.906 237.401 216.74 237.399 216.574C237.393 216.063 237.366 215.525 236.838 215.288C236.253 215.025 235.83 215.396 235.423 215.787C234.557 216.619 233.716 217.476 232.741 218.193C232.09 218.672 231.822 218.509 231.66 217.774C231.461 216.87 231.556 215.955 231.475 215.049C231.386 214.047 230.842 213.756 229.947 214.204C229.7 214.327 229.532 214.626 229.185 214.456C228.346 214.045 227.807 214.595 227.414 215.155C225.723 217.568 223.687 219.687 221.786 221.921C220.542 223.383 219.509 225.008 217.125 224.769C215.585 224.615 215.342 224.935 215.523 226.465C215.812 228.899 215.05 230.757 213.38 232.576C210.551 235.655 208.637 239.42 206.324 242.888C205.926 243.485 205.868 244.14 206.301 244.744C206.712 245.317 207.28 245.348 207.96 245.233C208.619 245.122 209.239 244.666 209.975 244.872C209.548 246.508 209.334 248.101 209.305 249.723C209.295 250.294 209.345 250.807 209.905 251.111C210.53 251.451 210.99 251.114 211.482 250.763C212.086 250.332 212.738 249.968 213.367 249.572C213.725 249.347 214.092 249.238 214.271 249.742C214.616 250.71 215.308 251.574 215.285 252.651C215.148 258.915 215.576 265.164 215.742 271.419C215.877 276.475 215.53 281.533 215.636 286.583C215.843 296.404 215.828 306.233 216.483 316.042C216.606 317.878 217.003 318.362 218.898 318.346C223.416 318.307 227.934 318.244 232.452 318.198C241.281 318.108 250.109 318.001 258.938 317.943C265.408 317.9 271.878 317.923 278.348 317.919C282.066 317.916 285.784 317.918 289.765 317.918C289.307 318.677 289.013 319.112 288.774 319.576C288.537 320.036 288.44 320.53 288.837 320.965C289.233 321.398 289.691 321.366 290.192 321.124C290.984 320.742 291.834 320.54 292.71 320.516C293.67 320.489 294.329 320.807 294.231 321.954C294.178 322.572 294.19 323.199 294.216 323.821C294.273 325.167 295.056 325.688 296.296 325.182C297.089 324.858 297.851 324.458 298.783 324.019C298.783 324.877 298.745 325.579 298.795 326.275C298.834 326.817 298.98 327.371 299.593 327.565C300.143 327.739 300.528 327.41 300.913 327.066C301.684 326.377 302.455 325.684 303.269 325.048C305.53 323.281 307.687 321.402 309.446 319.125C309.944 318.48 310.46 318.278 311.226 318.295C313.549 318.346 315.872 318.332 318.196 318.355C319.305 318.366 320.074 317.933 320.144 316.753C320.337 313.524 320.596 310.293 320.607 307.063C320.613 305.366 321.063 303.988 322.19 302.792C326.02 298.724 329.052 294.086 331.889 289.303C332.86 287.665 333.909 286.074 334.891 284.442C335.173 283.973 335.338 283.411 334.854 282.96C334.435 282.565 333.936 282.681 333.468 282.929ZM215.304 241.667C215.303 243.45 215.288 245.233 215.299 247.016C215.302 247.481 215.304 247.731 214.662 247.64C213.397 247.461 212.428 248.338 211.247 248.89C211.269 247.641 211.432 246.633 211.709 245.628C212.275 243.573 211.56 242.823 209.453 243.172C209.015 243.245 208.609 243.543 208.078 243.363C210.318 239.713 212.471 236.032 215.305 232.881C215.305 235.823 215.306 238.745 215.304 241.667ZM227.88 217.309C228.054 217.067 228.235 216.845 228.588 217.077C229.049 217.381 229.454 216.983 229.889 216.935C229.914 217.011 229.955 217.086 229.958 217.162C230.023 218.394 230.222 219.697 231.375 220.282C232.59 220.898 233.545 219.881 234.466 219.203C234.929 218.863 235.337 218.449 235.834 218.013C236.147 218.841 236.36 219.682 237.186 220.121C237.972 220.539 238.79 220.158 239.678 220.238C238.816 221.828 237.66 223.114 236.583 224.459C236.349 224.751 236.058 224.813 235.708 224.804C231.166 224.697 226.624 224.597 222.083 224.493C222.054 224.492 222.026 224.449 221.902 224.348C223.901 221.942 226.092 219.796 227.88 217.309ZM218.012 226.496C217.89 226.94 217.688 227.297 217.227 227.466C217.019 226.441 217.019 226.441 218.012 226.496ZM217.271 230.799C217.297 230.053 217.944 229.695 218.228 229.121C219.361 226.829 221.112 226.024 223.693 226.236C227.023 226.51 230.386 226.392 233.734 226.457C234.044 226.463 234.463 226.288 234.645 226.617C234.83 226.953 234.458 227.213 234.284 227.471C231.998 230.876 229.577 234.172 226.944 237.327C223.709 241.202 220.468 245.082 217.566 249.224C217.455 249.382 217.319 249.523 217.054 249.839C216.95 243.311 217.054 237.055 217.271 230.799ZM300.573 325.109C300.532 324.351 300.543 323.771 300.462 323.204C300.299 322.057 299.692 321.76 298.622 322.278C297.778 322.688 296.944 323.12 296.075 323.558C295.636 319.355 294.825 318.542 291.546 319.001C291.728 318.427 292.011 318.106 292.648 318.108C297.696 318.121 302.744 318.115 308.13 318.115C305.919 321.083 303.272 323.003 300.573 325.109ZM318.569 316.218C318.568 316.642 318.338 316.744 317.923 316.739C315.912 316.714 313.901 316.728 311.89 316.728C314.301 313.773 316.738 311.108 318.571 308.162C318.571 310.812 318.573 313.515 318.569 316.218ZM319.304 290.909C319.029 295.093 319.178 299.281 319.103 303.466C319.093 304.019 319.007 304.501 318.717 304.992C316.261 309.16 313.094 312.76 309.809 316.272C309.472 316.632 309.097 316.626 308.685 316.623C303.922 316.594 299.159 316.566 294.396 316.537C294.157 316.536 293.849 316.623 293.726 316.366C293.572 316.045 293.896 315.837 294.058 315.627C297.248 311.501 300.445 307.373 304.085 303.63C307.902 299.705 311.236 295.369 314.826 291.252C316.24 289.63 317.698 288.047 319.319 286.241C319.319 287.956 319.401 289.438 319.304 290.909ZM319.205 275.297C319.182 277.614 319.265 279.934 319.344 282.251C319.368 282.964 319.174 283.516 318.697 284.046C312.819 290.569 307.398 297.49 301.356 303.875C297.996 307.426 294.981 311.287 292.09 315.231C291.405 316.166 290.662 316.501 289.502 316.481C283.205 316.373 276.905 316.282 270.608 316.317C253.541 316.412 236.474 316.562 219.408 316.74C218.345 316.751 218.093 316.427 218.063 315.458C217.845 308.456 217.612 301.456 217.474 294.45C217.336 287.481 217.524 280.52 217.47 273.556C217.42 267.135 216.971 260.722 216.963 254.295C216.961 252.428 218.023 251.306 218.925 250.047C222.619 244.893 226.775 240.103 230.737 235.159C232.7 232.709 234.41 230.054 236.202 227.469C236.625 226.859 237.107 226.647 237.847 226.648C248.195 226.671 258.544 226.664 268.892 226.664C268.892 226.666 268.892 226.669 268.892 226.671C278.943 226.671 288.997 226.799 299.045 226.617C304.033 226.527 309.027 226.502 314.015 226.28C315.618 226.209 317.23 226.372 318.839 226.389C319.438 226.395 319.582 226.618 319.582 227.205C319.594 236.357 319.589 245.509 319.678 254.659C319.743 261.546 319.273 268.417 319.205 275.297ZM320.96 301.518C320.96 297.781 320.946 293.991 320.966 290.202C320.976 288.42 321.056 286.639 321.095 284.858C321.105 284.405 321.076 283.987 321.417 283.584C323.015 281.693 324.553 279.749 326.594 278.077C326.665 279.018 326.521 279.838 326.406 280.671C326.308 281.378 326.033 282.185 326.787 282.732C327.528 283.269 328.202 282.83 328.871 282.504C329.19 282.349 329.511 282.197 329.863 282.029C329.923 282.734 329.7 283.32 329.585 283.924C329.19 286.01 329.842 286.615 331.994 286.064C328.503 291.423 325.702 297.18 320.96 301.518Z" fill="#0D0615"/>
<g opacity="0.5">
<path d="M1172.56 432.637C1171.47 431.182 1169.88 430.365 1168.22 429.489C1168.98 428.773 1169.66 428.125 1170.35 427.474C1174.09 423.909 1174.1 419.74 1170.75 415.762C1166.28 410.456 1160.51 408.611 1153.71 410.465C1152.88 406.201 1150.37 403.492 1146.08 402.685C1142.86 402.08 1139.76 402.989 1136.78 404.18C1134.77 404.982 1133.05 406.288 1131.3 407.589C1130 402.241 1127.58 400.39 1124.23 400.057C1118.89 399.525 1116.3 402.749 1115.17 407.637C1112.16 405.138 1108.92 403.528 1105.21 402.826C1101.54 402.132 1098.24 402.554 1095.41 405.24C1093.88 406.691 1093.06 408.451 1092.78 410.506C1091.17 409.975 1089.59 409.757 1088.03 409.771C1082.75 409.82 1078.41 412.068 1075.34 416.233C1072.35 420.289 1072.5 423.991 1076.21 427.556C1076.86 428.181 1077.53 428.796 1078.23 429.458C1077.99 429.611 1077.84 429.736 1077.67 429.818C1072.72 432.172 1071.11 436.491 1071 441.533C1070.92 445.193 1072.89 448.088 1075.27 450.639C1078.34 453.927 1082.19 455.245 1086.69 454.829C1089.41 454.577 1091.88 453.649 1094.31 452.302C1094.82 456.483 1097.89 459.815 1101.69 460.503C1105.8 461.247 1109.44 460.296 1112.57 457.382C1113.98 460.372 1116.27 461.931 1119.43 462.372C1120.96 462.584 1122.46 462.432 1123.98 462.531C1125.72 462.646 1127.42 462.393 1129.08 461.894C1131.4 461.196 1132.85 459.487 1133.93 457.41C1137.49 460.627 1141.53 461.57 1145.96 460.139C1149.64 458.952 1151.56 456.131 1152.21 452.343C1152.62 452.554 1153.02 452.756 1153.42 452.964C1155.95 454.293 1158.66 454.999 1161.5 454.939C1165.73 454.849 1169.16 453.05 1171.96 449.833C1176.89 444.166 1176.21 437.528 1172.56 432.637ZM1159.79 453.027C1156.85 452.61 1154.23 451.469 1151.79 449.853C1151.34 449.557 1150.92 449.34 1150.43 449.652C1150.07 449.877 1149.97 450.245 1150.09 450.635C1151.13 453.803 1149.51 455.928 1147.17 457.599C1144.09 459.801 1138.58 459.211 1135.86 456.56C1135.23 455.945 1134.8 455.2 1134.43 454.402C1134.2 453.905 1133.78 453.629 1133.21 453.819C1132.71 453.989 1132.61 454.388 1132.62 454.908C1132.68 457.315 1131.35 458.887 1129.32 459.852C1127.58 460.68 1125.71 460.873 1123.75 460.629C1122.34 460.452 1120.9 460.85 1119.44 460.574C1117.43 460.194 1115.75 459.41 1114.61 457.641C1114.09 456.816 1113.72 455.949 1113.85 454.952C1113.92 454.379 1113.78 453.956 1113.19 453.798C1112.67 453.658 1112.33 453.941 1112.06 454.352C1109.43 458.292 1105.99 459.723 1101.46 458.591C1098.67 457.891 1096.95 455.944 1096.13 453.224C1095.92 452.518 1095.94 451.735 1096.24 451.027C1096.45 450.525 1096.57 450.048 1096.09 449.683C1095.57 449.29 1095.11 449.579 1094.63 449.895C1092.5 451.288 1090.25 452.425 1087.72 452.845C1081.84 453.82 1077.72 451.745 1074.25 446.595C1071.4 442.374 1072.87 436.256 1075.19 433.596C1076.29 432.337 1077.75 431.65 1079.15 430.864C1080.55 430.086 1080.63 429.265 1079.44 428.157C1078.62 427.395 1077.76 426.681 1076.98 425.876C1074.52 423.308 1074.05 421.113 1076.46 417.375C1078.8 413.757 1083.69 411.385 1088.05 411.466C1089.69 411.59 1091.42 411.598 1092.93 412.713C1093.8 413.36 1094.49 412.904 1094.55 411.773C1094.82 406.609 1098.17 403.728 1103.23 404.288C1106.32 404.629 1109.19 405.568 1111.78 407.337C1112.78 408.02 1113.73 408.726 1114.45 409.72C1114.77 410.166 1115.24 410.543 1115.82 410.372C1116.34 410.218 1116.48 409.69 1116.57 409.189C1116.85 407.598 1117.11 405.998 1117.99 404.598C1119.17 402.724 1120.71 401.619 1123.09 401.828C1127.19 402.189 1128.99 403.775 1129.7 407.911C1129.85 408.783 1129.67 409.963 1130.63 410.313C1131.69 410.702 1132.06 409.48 1132.71 408.899C1135.26 406.615 1138.2 405.098 1141.6 404.547C1142.7 404.369 1143.82 404.249 1144.93 404.225C1148.23 404.154 1151.67 407.173 1151.99 410.369C1152.03 410.855 1151.91 411.357 1151.94 411.847C1152 412.865 1152.6 413.283 1153.41 412.809C1156.96 410.727 1160.59 411.125 1164.11 412.69C1167.4 414.154 1170.11 416.36 1171.27 419.997C1171.82 421.701 1171.55 423.259 1170.49 424.695C1169.55 425.975 1168.36 427.006 1167.17 428.042C1165.77 429.265 1165.81 430.165 1167.51 430.931C1172.22 433.064 1174.04 436.943 1173.8 441.778C1173.48 448.417 1166.36 453.961 1159.79 453.027Z" fill="#120F14"/>
<path d="M1081.39 433.533C1081.05 432.96 1080.46 433.046 1079.96 433.266C1079.62 433.409 1079.32 433.664 1079.07 433.932C1076.91 436.252 1075.73 438.987 1075.58 442.235C1075.63 443.703 1076.03 445.05 1077.15 446.191C1078 447.057 1079.09 447.586 1079.96 448.418C1080.27 448.724 1080.77 448.801 1081.08 448.464C1081.42 448.098 1081.57 447.606 1081.18 447.116C1080.68 446.486 1080.01 446.082 1079.37 445.633C1078.19 444.807 1077.35 443.763 1077.39 442.255C1077.47 439.228 1078.58 436.64 1080.83 434.571C1081.13 434.286 1081.74 434.12 1081.39 433.533Z" fill="#120F14"/>
<path d="M1165.54 417.391C1164.71 415.847 1163.46 414.824 1161.61 414.779C1160.8 414.759 1159.74 414.873 1159.68 415.722C1159.61 416.722 1160.82 416.531 1161.42 416.536C1162.94 416.549 1163.77 417.336 1164.31 418.599C1165 420.183 1165.12 421.787 1164.46 423.418C1164.27 423.891 1164.13 424.422 1164.75 424.688C1165.42 424.976 1165.77 424.496 1165.96 423.97C1166.25 423.157 1166.62 422.352 1166.58 421.784C1166.51 420.022 1166.22 418.642 1165.54 417.391Z" fill="#120F14"/>
<path d="M1168.68 435.925C1168.1 436.167 1168.51 436.634 1168.51 437.004C1168.5 437.392 1168.73 437.702 1168.86 438.048C1170.05 441.234 1169.92 443.485 1167.73 445.577C1167.41 445.891 1167.06 446.195 1166.79 446.551C1166.52 446.892 1166.4 447.298 1166.8 447.661C1167.15 447.982 1167.5 447.835 1167.81 447.602C1169.79 446.085 1171.19 444.222 1171.28 441.511C1171.09 439.76 1171.09 437.863 1169.76 436.359C1169.48 436.051 1169.14 435.735 1168.68 435.925Z" fill="#120F14"/>
<path d="M1085.99 449.024C1085.48 449.282 1085.01 449.406 1084.59 449.351C1083.79 449.299 1083.03 449.237 1082.91 450.106C1082.77 451.165 1083.71 451.042 1084.35 451.194C1084.93 451.331 1085.51 451.254 1086.04 451.013C1086.55 450.785 1086.95 450.435 1086.99 449.823C1087.04 449.087 1086.73 448.645 1085.99 449.024Z" fill="#120F14"/>
<path d="M1164.48 427.191C1164.17 427.231 1163.97 427.455 1164 427.779C1164.02 428.04 1164.19 428.212 1164.55 428.195C1164.8 428.167 1165.05 428.016 1165.03 427.685C1165.02 427.382 1164.81 427.147 1164.48 427.191Z" fill="#120F14"/>
</g>
<path opacity="0.5" d="M881.51 240.893C882.35 246.942 881.688 252.865 878.62 258.325C878.002 259.424 878.414 260.088 879.868 260.261C883.399 260.682 886.931 261.085 890.463 261.498C891.736 261.647 893.009 261.799 894.28 261.961C895.061 262.061 895.609 261.807 896.022 261.092C897.501 258.536 897.648 255.727 897.391 252.931C896.906 247.639 895.147 242.706 892.739 237.989C889.385 231.419 885.362 225.353 879.614 220.54C880.614 219.858 881.52 219.213 882.456 218.615C882.899 218.332 883.28 218.042 883.261 217.47C883.24 216.857 882.782 216.727 882.29 216.522C879.756 215.471 877.053 215.39 874.393 215.121C871.922 214.871 869.496 214.367 867.042 214.035C865.361 213.808 864.619 214.701 865.19 216.338C865.462 217.119 865.788 217.887 866.158 218.626C867.628 221.565 868.537 224.702 869.457 227.836C869.637 228.447 869.825 229.062 870.555 229.19C871.263 229.314 871.549 228.761 871.893 228.283C872.855 226.946 873.845 225.628 874.939 224.146C878.082 229.462 880.675 234.881 881.51 240.893ZM878.247 226.435C877.62 225.142 876.817 223.922 875.988 222.742C875.22 221.648 874.619 221.72 873.841 222.759C872.913 223.999 872.26 225.443 870.977 226.682C870.148 222.862 868.55 219.482 866.975 215.83C871.464 216.879 875.885 216.945 880.591 217.83C879.405 218.553 878.563 219.155 877.641 219.589C877.198 219.797 876.759 219.907 876.763 220.45C876.766 220.977 877.064 221.469 877.562 221.576C878.359 221.747 878.866 222.284 879.382 222.796C880.793 224.194 882.205 225.597 883.531 227.076C886.31 230.175 888.381 233.76 890.374 237.384C893.026 242.207 894.939 247.297 895.634 252.789C895.901 254.901 895.726 256.994 895.148 259.051C894.898 259.94 894.555 260.401 893.426 260.242C889.42 259.677 885.395 259.247 881.374 258.799C880.651 258.718 880.353 258.657 880.755 257.805C883.181 252.666 883.853 247.208 883.327 241.613C882.816 236.181 880.593 231.271 878.247 226.435Z" fill="#0D0615"/>
<path opacity="0.5" d="M358.58 737.197C360.244 737.804 361.79 738.712 363.271 739.706C363.627 739.945 363.7 740.189 363.724 740.608C363.882 743.336 364.18 746.049 364.932 748.689C365.554 750.871 367.796 751.815 369.782 750.721C371.081 750.006 372.27 749.112 373.598 748.43C374.114 748.165 374.362 748.208 374.778 748.486C376.013 749.311 377.328 749.992 378.744 750.454C380.857 751.144 381.226 751.06 381.995 749.011C385.665 739.232 390.271 729.81 393.123 719.718C393.75 717.5 394.682 715.369 394.978 713.137C394.986 712.321 394.792 711.568 394.254 711.151C393.693 710.716 393.11 711.337 392.557 711.567C392.407 711.629 392.272 711.738 392.144 711.842C390.593 713.097 388.903 714.143 387.189 715.156C380.741 718.969 374.639 723.322 368.273 727.263C364.781 729.425 361.482 731.852 358.238 734.362C356.781 735.49 356.281 736.359 358.58 737.197ZM369.103 748.98C369.671 747.717 370.116 746.724 370.595 745.659C371.195 746.1 371.752 746.51 372.381 746.972C371.321 747.62 370.327 748.23 369.103 748.98ZM392.81 714.876C392.384 717.217 391.375 719.358 390.757 721.618C388.352 730.408 384.007 738.458 381.071 747.047C380.364 749.115 380.247 749.129 378.265 748.225C375.808 747.104 373.589 745.595 371.48 743.906C370.682 743.267 370.691 742.767 371.226 741.966C373.739 738.199 376.877 734.923 379.561 731.299C383.751 725.644 388.697 720.602 392.81 714.876ZM387.407 718.848C385.969 720.524 384.419 722.117 383.114 723.891C379.092 729.361 374.455 734.343 370.517 739.877C369.276 741.621 368.362 743.453 368.089 745.611C367.956 746.662 367.674 747.714 367.069 748.865C366.267 747.412 366.224 745.923 365.988 744.486C365.781 743.226 365.685 741.945 365.432 740.695C365.304 740.065 365.637 739.783 365.991 739.444C369.186 736.373 372.424 733.345 375.564 730.219C378.732 727.064 381.791 723.8 384.927 720.611C385.629 719.897 386.449 719.299 387.407 718.848ZM383.728 719.262C377.859 725.789 371.651 731.976 365.221 737.94C364.928 738.212 364.714 738.622 364.206 738.219C362.802 737.104 361.135 736.446 359.366 735.53C367.119 729.415 375.665 724.717 383.728 719.262Z" fill="#0D0615"/>
<path opacity="0.5" d="M78.3705 526.714C77.4555 527.053 76.7005 527.613 76.0505 528.33C73.8995 530.704 75.2405 534.959 78.3595 535.65C78.6665 535.718 79.0935 535.647 79.1195 536.11C79.1465 536.589 79.2715 537.118 78.7995 537.49C78.3765 537.823 77.9175 538.117 77.5315 538.488C74.8685 541.044 75.3435 544.679 78.5585 546.45C79.4705 546.952 79.4185 547.481 78.4235 548.111C76.5105 549.322 75.8435 551.172 75.8725 553.321C75.8985 555.199 76.7335 556.585 78.5805 557.201C79.0315 557.351 79.1195 557.598 79.1435 558.015C79.1725 558.536 78.9175 558.664 78.4735 558.854C76.4665 559.717 75.7505 561.368 75.7965 563.466C75.8365 565.264 76.5355 566.653 78.1725 567.469C79.5265 568.143 79.6145 569.64 78.4135 570.586C75.4385 572.93 73.6145 576.941 78.6725 580.023C79.4575 580.501 79.4685 581.039 78.6115 581.414C77.2065 582.028 76.4205 583.113 75.9215 584.493C74.9095 587.294 75.7465 589.684 78.1485 590.79C78.6615 591.026 79.2535 591.119 79.2405 591.923C79.2275 592.692 79.1925 593.247 78.3705 593.749C76.1625 595.098 75.8075 598.946 77.7135 600.568C78.5195 601.254 79.5345 601.67 79.2895 603.005C79.2625 603.151 79.4695 603.467 79.6135 603.498C80.7905 603.753 81.6865 604.616 82.8935 604.865C88.8595 606.093 94.8865 606.901 100.921 607.688C106.723 608.445 112.542 608.72 118.398 608.75C125.779 608.788 133.151 608.744 140.521 608.343C142.565 608.232 143.015 607.741 143.072 605.672C143.079 605.426 143.083 605.178 143.072 604.932C143.028 603.899 143.446 603.507 144.519 603.703C145.615 603.903 146.277 603.467 146.156 602.217C146.121 601.853 146.222 601.478 146.222 601.108C146.226 586.998 146.225 572.888 146.225 558.778C146.234 558.778 146.243 558.778 146.252 558.778C146.252 549.938 146.25 541.098 146.253 532.257C146.255 526.821 146.229 521.384 146.291 515.948C146.316 513.742 145.762 513.004 143.585 513.018C138.622 513.051 133.659 513.157 128.696 513.167C113.205 513.199 97.7135 513.279 82.2235 513.002C79.5915 512.955 78.9885 513.564 79.1025 516.172C79.1315 516.838 79.0225 517.212 78.2965 517.412C76.9055 517.795 76.0625 518.752 75.7625 520.187C75.2755 522.511 76.2545 524.556 78.3875 525.63C78.6655 525.77 79.0935 525.768 79.0985 526.212C79.1035 526.696 78.6515 526.61 78.3705 526.714ZM79.0965 544.624C78.2015 544.355 77.6645 543.814 77.5445 543.021C77.3305 541.599 77.7555 540.366 79.0965 539.25C79.0965 541.163 79.0965 542.842 79.0965 544.624ZM79.1335 555.429C76.9405 554.6 76.8905 551.538 79.1335 549.59C79.1335 551.638 79.1335 553.518 79.1335 555.429ZM78.9735 565.746C78.8185 565.786 78.5865 565.651 78.4295 565.539C77.1375 564.62 77.1635 561.579 78.4605 560.692C78.9105 560.384 79.2145 560.301 79.1765 561.043C79.1405 561.741 79.1685 562.442 79.1685 563.141C79.1725 563.141 79.1775 563.141 79.1825 563.141C79.1825 563.799 79.1915 564.457 79.1775 565.115C79.1725 565.342 79.2835 565.666 78.9735 565.746ZM79.1125 578.067C76.6655 576.336 76.6525 574.289 79.1125 572.182C79.1125 574.168 79.1125 576.053 79.1125 578.067ZM79.1735 589.422C78.1255 589.031 77.2875 588.642 77.2445 587.401C77.1875 585.738 77.3035 584.177 79.1735 583.115C79.1735 585.324 79.1735 587.318 79.1735 589.422ZM79.1965 599.47C77.8385 598.739 77.8265 596.602 79.1965 595.539C79.1965 596.872 79.1965 598.161 79.1965 599.47ZM90.1505 604.631C88.9845 604.381 87.8215 604.122 86.6575 603.865C86.5365 603.838 86.4175 603.806 86.2975 603.776C86.2785 603.733 86.2595 603.69 86.2405 603.647C87.5885 603.647 88.9355 603.638 90.2835 603.654C90.5675 603.657 91.0645 603.474 91.0685 603.899C91.0725 604.359 90.7455 604.758 90.1505 604.631ZM93.8735 604.349C93.5045 604.689 93.2765 605.307 92.5845 605.044C92.4285 604.985 92.2565 604.869 92.3845 604.69C92.7155 604.23 93.0115 603.699 93.6965 603.705C93.8575 603.706 94.0185 603.723 94.3855 603.745C94.1285 604.051 94.0165 604.217 93.8735 604.349ZM96.9315 604.3C96.4775 604.849 96.1735 605.688 95.0295 605.181C95.6385 604.706 95.7975 603.978 96.5015 603.752C96.7115 603.685 96.9085 603.642 97.0745 603.809C97.3055 604.041 97.0415 604.167 96.9315 604.3ZM101.2 604.396C100.393 605.726 99.3325 606.312 97.7655 605.418C98.4595 604.239 99.3905 603.503 100.864 603.671C101.079 603.695 101.286 603.674 101.401 603.868C101.542 604.104 101.3 604.231 101.2 604.396ZM101.788 606.16C101.422 605.82 101.843 605.637 102.015 605.487C102.85 604.763 103.174 603.202 105.162 603.859C104.244 604.673 103.447 605.367 102.665 606.079C102.378 606.342 102.081 606.432 101.788 606.16ZM104.506 606.613C105.412 605.655 106.342 604.673 107.271 603.69C106.379 604.7 106.259 606.588 104.506 606.613ZM108.151 605.558C108.989 603.886 108.989 603.886 109.87 603.829C109.506 604.615 109.054 605.07 108.151 605.558ZM109.242 606.764C110.167 605.777 111.005 604.77 111.969 603.903C112.438 603.481 113.14 603.796 113.777 603.958C112.308 604.955 112.098 607.885 109.242 606.764ZM113.377 606.981C114.701 605.653 115.172 603.2 117.99 603.798C116.463 604.999 115.795 607.173 113.377 606.981ZM116.947 607.012C118.479 606.061 118.746 603.512 121.157 603.758C119.679 604.77 118.864 606.614 116.947 607.012ZM122.345 606.886C121.648 607.474 120.634 606.995 119.716 606.951C121.467 605.788 122.426 603.302 125.275 603.733C124.235 604.876 123.392 606.002 122.345 606.886ZM123.987 607.276C124.561 606.163 125.662 605.663 126.09 604.771C126.719 603.462 127.667 603.593 128.905 603.733C127.999 604.982 126.844 605.805 126.088 606.997C125.653 607.682 124.831 607.161 123.987 607.276ZM129.723 606.972C129.336 607.419 128.345 607.269 127.21 607.182C129.293 606.099 129.72 603.199 132.643 603.776C131.796 605.01 130.651 605.9 129.723 606.972ZM131.598 606.973C132.655 605.858 133.603 604.842 134.574 603.85C134.779 603.641 135.136 603.557 135.354 603.769C135.683 604.089 135.25 604.261 135.098 604.446C134.576 605.083 133.983 605.664 133.491 606.323C133.042 606.923 132.505 607.147 131.598 606.973ZM134.98 607.021C135.838 605.689 136.612 604.271 138.273 603.779C137.172 604.856 136.425 606.304 134.98 607.021ZM139.252 606.591C138.988 607.216 138.248 606.907 137.649 606.922C138.711 605.721 139.591 604.32 141.178 603.753C140.607 604.783 139.711 605.502 139.252 606.591ZM80.7445 539.503C80.7055 538.593 81.0605 538.494 81.8175 538.59C82.6225 538.692 83.2815 539.138 84.0245 539.375C84.2815 539.457 84.5025 539.75 84.7935 539.447C85.0685 539.161 85.0055 538.843 84.8895 538.52C84.5325 537.522 83.6795 537.227 82.7615 537.038C82.3575 536.955 81.9385 536.826 81.5405 536.864C80.8155 536.934 80.7465 536.573 80.7505 535.99C80.7675 533.584 80.7705 531.177 80.7325 528.772C80.7225 528.147 80.8935 528.014 81.5085 528.085C82.3565 528.183 82.9525 528.642 83.5415 529.173C83.7775 529.385 84.0205 529.799 84.3545 529.588C84.7285 529.353 84.6855 528.92 84.5625 528.475C84.1575 527.008 82.9395 526.626 81.7125 526.481C80.8685 526.381 80.7155 526.095 80.7335 525.351C80.7775 523.485 80.7425 521.617 80.7655 519.75C80.7685 519.461 80.5365 519.03 80.9925 518.903C81.3715 518.797 81.7335 518.979 81.9605 519.309C82.3105 519.818 82.6815 520.324 82.9465 520.878C83.1005 521.202 83.1925 521.511 83.6025 521.467C84.0535 521.419 84.1675 521.03 84.2725 520.672C84.6235 519.475 83.3415 517.735 81.7585 517.299C81.2165 517.15 80.6795 517.21 80.7155 516.316C80.7785 514.716 80.7035 514.708 82.3715 514.716C94.9965 514.775 107.621 514.868 120.246 514.883C127.981 514.892 135.717 514.803 143.451 514.695C144.353 514.682 144.606 514.997 144.615 515.76C144.642 518.115 144.686 520.47 144.683 522.825C144.675 530.191 144.645 537.557 144.631 544.923C144.623 549.514 144.629 554.106 144.629 558.697C144.607 558.697 144.585 558.697 144.563 558.697C144.563 571.004 144.563 583.31 144.563 595.617C144.563 597.401 144.523 599.186 144.579 600.968C144.602 601.681 144.418 601.872 143.698 601.87C134.872 601.847 126.047 601.86 117.221 601.861C111.097 601.862 104.973 601.86 98.8485 601.858C93.1525 601.856 87.4565 601.839 81.7605 601.864C81.0565 601.867 80.7235 601.801 80.7555 600.961C80.8255 599.138 80.8095 597.31 80.7595 595.486C80.7395 594.748 81.0485 594.541 81.6995 594.56C82.8685 594.595 84.0025 594.564 84.5465 595.984C84.8345 596.736 85.3535 596.528 85.6835 595.884C86.2845 594.714 85.4425 593.205 83.9605 592.904C83.1965 592.749 82.4015 592.661 81.6235 592.679C81.0005 592.694 80.7545 592.603 80.7635 591.903C80.8015 589.166 80.8005 586.428 80.7545 583.692C80.7425 582.99 80.9875 582.815 81.6025 582.944C82.5335 583.139 83.4905 583.26 83.8465 584.396C83.9425 584.703 84.1145 585.175 84.5745 585.13C85.0815 585.081 85.1445 584.583 85.2605 584.2C85.5575 583.218 85.0825 582.208 84.0875 581.742C83.2955 581.371 82.4575 581.1 81.5765 581.102C80.9025 581.104 80.7575 580.802 80.7635 580.192C80.7895 577.62 80.7915 575.047 80.7615 572.475C80.7535 571.769 80.9585 571.625 81.6265 571.833C82.7305 572.177 83.5685 572.912 84.4335 573.609C84.6645 573.795 84.8565 574.078 85.1605 573.962C85.5115 573.828 85.5415 573.432 85.5695 573.11C85.6175 572.563 85.3065 572.173 84.9055 571.845C83.9015 571.024 82.8455 570.309 81.4985 570.201C80.9415 570.156 80.7515 569.902 80.7575 569.317C80.7865 566.455 80.7965 563.591 80.7365 560.73C80.7205 559.94 81.0905 559.968 81.6295 560.017C82.6505 560.11 83.3735 560.694 84.0305 561.412C84.2395 561.64 84.3995 562.107 84.7825 561.905C85.1385 561.717 85.2795 561.293 85.2865 560.856C85.2955 560.302 85.0045 559.922 84.6185 559.584C83.7075 558.787 82.6065 558.462 81.4365 558.347C81.0265 558.306 80.7435 558.304 80.7495 557.75C80.7775 555.182 80.7965 552.614 80.7455 550.047C80.7305 549.284 81.0205 549.219 81.6135 549.372C82.4245 549.582 83.1675 549.922 83.8235 550.451C84.0685 550.648 84.3135 550.984 84.6755 550.707C85.0015 550.457 85.0475 550.071 84.9775 549.685C84.8345 548.902 84.2355 548.526 83.6015 548.194C83.4195 548.099 83.2215 548.034 83.0295 547.961C82.3085 547.687 81.1955 547.896 80.8895 547.295C80.5345 546.596 80.7605 545.596 80.7565 544.727C80.7555 542.988 80.8205 541.243 80.7445 539.503ZM79.0815 523.765C79.0815 523.79 79.0315 523.815 79.0055 523.84C77.5515 523.027 76.8645 521.086 77.6045 519.806C77.8795 519.331 78.3235 518.871 78.8685 518.991C79.3365 519.095 79.1185 519.693 79.1225 520.068C79.1345 521.301 79.1015 522.533 79.0815 523.765ZM79.1045 533.158C79.1265 533.992 78.7525 533.937 78.2005 533.68C76.9585 533.102 76.4305 530.468 77.4175 529.442C77.8225 529.02 78.2585 528.535 79.0935 528.345C79.0925 530.024 79.0635 531.592 79.1045 533.158Z" fill="#0D0615"/>
<g opacity="0.5">
<path d="M183.483 988.169C182.794 988.246 182.17 988.532 182.023 989.296C181.881 990.032 182.413 990.426 182.952 990.765C183.826 991.315 184.705 991.857 185.593 992.385C186.041 992.652 186.146 992.907 185.748 993.331C185.097 994.024 184.462 994.736 183.872 995.48C183.498 995.952 183.031 996.454 183.446 997.149C183.815 997.769 184.423 997.68 184.998 997.649C187.847 997.493 190.693 997.205 193.551 997.418C193.92 997.445 194.233 997.332 194.447 997.085C195.204 996.211 196.104 995.391 196.502 994.313C196.765 993.601 197.137 993.594 197.681 993.594C200.002 993.598 202.323 993.595 204.644 993.595C204.644 993.606 204.644 993.618 204.644 993.629C206.924 993.629 209.204 993.637 211.483 993.624C212.112 993.62 213.024 993.837 213.02 992.879C213.017 992.096 212.192 991.971 211.512 991.916C211.265 991.896 211.015 991.905 210.766 991.904C206.414 991.897 202.062 991.862 197.71 991.907C196.821 991.916 196.46 991.668 196.217 990.801C195.911 989.707 195.794 988.311 194.144 988.271C190.59 988.188 187.039 987.773 183.483 988.169ZM189.901 993.525C191.566 993.731 193.276 993.567 194.984 993.567C194.953 993.743 194.957 993.82 194.926 993.88C194.041 995.638 192.544 995.903 190.771 995.667C189.959 995.559 189.116 995.654 188.289 995.695C187.528 995.733 186.77 995.823 185.923 995.898C186.864 994.249 187.933 993.282 189.901 993.525ZM193.601 990.149C194.599 990.187 194.329 991.168 194.834 991.98C191.35 991.49 187.821 992.955 185.076 989.95C187.967 989.745 190.784 990.042 193.601 990.149Z" fill="#0E0615"/>
<path d="M237.722 995.641C237.803 996.573 238.275 997.14 239.174 996.803C241.064 996.094 243.001 995.449 244.595 994.116C245.63 993.25 245.654 991.777 244.579 990.954C243.531 990.152 242.373 989.516 241.178 988.972C238.584 987.791 238.001 988.154 237.851 991.005C237.823 991.542 237.769 991.782 237.103 991.772C234.002 991.721 230.899 991.749 227.797 991.749C227.797 991.794 227.797 991.839 227.797 991.884C224.978 991.884 222.158 991.884 219.338 991.884C218.923 991.884 218.509 991.884 218.094 991.892C217.55 991.903 217.056 992.082 217.01 992.68C216.959 993.342 217.569 993.454 218.032 993.528C218.6 993.619 219.19 993.586 219.77 993.58C224.943 993.526 230.117 993.464 235.29 993.409C236.036 993.401 236.934 993.155 237.49 993.481C238.233 993.915 237.658 994.9 237.722 995.641ZM239.709 990.341C240.478 990.727 241.212 991.096 242.066 991.525C239.721 991.996 239.511 991.892 239.709 990.341ZM240.823 993.375C241.34 993.444 241.873 993.386 242.764 993.386C241.607 994.18 240.656 994.516 239.68 994.864C239.311 993.734 239.596 993.211 240.823 993.375Z" fill="#0D0615"/>
</g>
<path opacity="0.5" d="M1052.08 1005.62C1054.54 1005.64 1057.01 1005.33 1059.48 1005.17C1063.32 1004.92 1067.17 1004.75 1071.01 1004.39C1072.75 1004.22 1074.09 1003.92 1073.69 1001.61C1073.68 1001.53 1073.68 1001.44 1073.7 1001.36C1074.8 996.68 1075.33 991.914 1075.54 987.126C1075.65 984.619 1076.37 982.169 1076.03 979.609C1075.88 978.485 1075.39 978.34 1074.53 978.329C1066.55 978.226 1058.57 978.105 1050.6 978.018C1047.2 977.981 1043.81 978.012 1040.42 978.012C1040.42 978.098 1040.42 978.185 1040.42 978.271C1039.42 978.271 1038.43 978.262 1037.43 978.273C1034.74 978.302 1032.04 978.346 1029.35 978.369C1028.5 978.376 1028.2 978.716 1028.07 979.618C1027.83 981.346 1028.28 982.988 1028.4 984.665C1028.68 988.409 1029.01 992.152 1029.42 995.884C1029.62 997.769 1030.3 999.626 1030.33 1001.5C1030.36 1003.71 1031.02 1004.2 1033.4 1004.42C1036.74 1004.73 1040.09 1004.89 1043.43 1005.11C1046.31 1005.29 1049.19 1005.6 1052.08 1005.62ZM1072.78 996.377C1070.9 993.061 1068.63 990.033 1066.71 986.798C1069.15 984.989 1071.86 983.395 1074.38 981.265C1073.67 986.372 1073.72 991.395 1072.78 996.377ZM1073.26 980.069C1069.15 983.242 1065.15 985.995 1060.67 988.023C1058.41 989.042 1056.27 990.325 1054.1 991.539C1052.71 992.32 1051.42 992.282 1050.01 991.521C1046.15 989.439 1042.19 987.544 1038.39 985.363C1035.82 983.886 1033.41 982.106 1030.93 980.076C1045.08 979.634 1059.02 979.648 1073.26 980.069ZM1029.74 981.24C1032.38 983.442 1035.01 985.005 1037.43 986.8C1035.51 990.008 1033.27 993.041 1031.37 996.341C1030.46 991.426 1030.45 986.463 1029.74 981.24ZM1032.03 1000.56C1031.74 999.392 1032 998.503 1032.61 997.541C1034.45 994.647 1036.25 991.728 1038 988.775C1038.55 987.833 1038.96 987.565 1040.08 988.117C1043.16 989.634 1046.17 991.278 1049.17 992.927C1051.11 993.988 1053.03 993.987 1054.96 992.926C1058.08 991.214 1061.19 989.492 1064.4 987.956C1065.12 987.611 1065.48 987.708 1065.88 988.37C1067.89 991.693 1069.91 995.014 1071.99 998.294C1072.44 998.999 1072.24 999.635 1072.17 1000.31C1072.11 1000.84 1071.86 1001.37 1071.88 1001.89C1071.91 1002.62 1071.6 1002.59 1071.01 1002.62C1065.97 1002.89 1060.93 1003.24 1055.88 1003.53C1054.6 1003.6 1053.32 1003.54 1052.03 1003.54C1052.03 1003.61 1052.03 1003.68 1052.03 1003.75C1046.16 1003.38 1040.29 1003.01 1034.42 1002.65C1032.43 1002.53 1032.51 1002.54 1032.03 1000.56Z" fill="#0D0614"/>
<g opacity="0.5">
<path d="M1216.12 647.257C1214.38 647.354 1212.67 647.667 1211.03 648.267C1202.77 651.291 1197.89 657.225 1197.1 665.921C1196.34 674.353 1199.89 681.033 1207.22 685.374C1212.19 688.318 1217.66 688.914 1223.38 688.115C1230.07 687.183 1235.25 684.099 1238.89 678.379C1244.34 669.809 1242.12 657.589 1233.97 651.501C1230.63 649.007 1226.91 647.573 1222.77 647.259C1222.11 647.209 1221.91 647.011 1222 646.392C1222.04 646.069 1222.08 645.727 1222.02 645.411C1221.85 644.521 1222.27 644.27 1223.08 644.242C1224.24 644.203 1225.39 644.071 1226.55 643.965C1228.36 643.799 1229.15 642.989 1229 641.244C1228.75 638.185 1228.48 638.03 1226.28 638.018C1224 638.005 1221.73 638.253 1219.41 638.123C1217.17 638.25 1214.9 638.058 1212.62 638.002C1210.67 637.955 1209.99 638.626 1209.91 640.595C1209.9 640.968 1209.89 641.342 1209.9 641.715C1209.94 643.006 1210.54 643.717 1211.82 643.888C1213.01 644.047 1214.21 644.252 1215.4 644.213C1216.69 644.17 1217.11 644.665 1216.89 645.868C1216.85 646.069 1216.87 646.285 1216.9 646.489C1216.99 647.114 1216.69 647.226 1216.12 647.257ZM1212.45 642.248C1210.97 642.086 1211.55 641.062 1211.48 640.313C1211.37 639.212 1212.16 639.713 1212.63 639.728C1217.5 639.88 1222.37 639.98 1227.29 639.615C1227.5 642.05 1227.49 641.989 1225.3 642.315C1221.01 642.951 1216.74 642.716 1212.45 642.248ZM1219.42 647.249C1218.22 647.189 1218.8 646.301 1218.75 645.794C1218.7 645.354 1218.36 644.567 1219.41 644.569C1220.65 644.57 1219.92 645.506 1220.18 645.967C1219.97 646.442 1220.59 647.307 1219.42 647.249ZM1217.04 649.083C1218.91 648.991 1220.78 649.206 1222.67 649.005C1225.05 648.752 1227.34 649.574 1229.46 650.643C1236.48 654.177 1239.98 659.942 1240.22 667.837C1240.02 672.887 1238.25 677.308 1234.56 680.92C1231.11 684.298 1226.96 685.921 1222.16 686.346C1217.74 686.739 1213.46 686.378 1209.45 684.507C1202.18 681.125 1197.97 673.553 1198.76 665.635C1199.53 657.803 1205.23 651.286 1213.03 649.359C1214.34 649.037 1215.71 649.148 1217.04 649.083Z" fill="#0D0615"/>
<path d="M1206.93 681.262C1211.18 684.9 1216.25 685.859 1221.69 685.376C1228.06 684.812 1232.99 681.87 1235.99 676.229C1239.23 670.126 1238.75 664 1234.84 658.339C1231.14 652.988 1225.8 650.575 1219.36 650.507C1215.26 650.518 1211.52 651.643 1208.2 654.052C1199.14 660.646 1198.18 673.772 1206.93 681.262ZM1232.05 657.723C1236.03 662.156 1237.23 667.401 1235.3 673.07C1233.34 678.782 1229.16 682.124 1223.25 683.327C1221.99 683.585 1220.71 683.637 1219.88 683.59C1214 683.704 1209.46 681.877 1206.02 677.59C1201.66 672.146 1201.64 664.284 1205.94 658.741C1212.39 650.433 1225.02 649.886 1232.05 657.723Z" fill="#0D0615"/>
<path d="M1212.23 664.323C1214.44 666.091 1216.3 668.204 1218.18 670.305C1219.24 671.492 1219.61 671.499 1220.67 670.322C1222.62 668.172 1224.53 665.99 1226.81 664.18C1227.25 663.835 1227.47 663.343 1227.64 662.758C1227.49 662.497 1227.5 661.985 1226.92 662.319C1226.45 662.584 1225.96 662.818 1225.54 663.135C1223.56 664.601 1221.93 666.433 1220.34 668.284C1219.65 669.085 1219.35 669.274 1218.56 668.323C1216.94 666.39 1215.26 664.478 1213.17 663.023C1212.67 662.675 1212 661.8 1211.45 662.474C1210.95 663.099 1211.65 663.86 1212.23 664.323Z" fill="#0E0715"/>
</g>
<g opacity="0.5">
<path d="M497.636 126.691C494.249 121.902 489.295 118.961 483.468 117.771C474.821 116.005 466.822 117.012 460.237 123.549C456.507 127.252 453.558 131.289 454.055 137.01C454.616 143.465 456.805 148.749 463.342 151.243C464.487 151.679 465.252 152.38 465.191 153.68C465.104 155.547 466.649 157.551 464.736 159.275C464.67 159.335 464.729 159.518 464.695 159.632C464.35 160.771 464.443 161.945 464.669 163.056C464.954 164.461 465.027 166.11 466.962 166.484C467.465 166.581 467.166 166.999 467.137 167.304C466.899 169.802 468.002 171.33 470.439 171.873C470.964 171.99 471.499 172.057 472.029 172.152C475.007 172.689 477.984 172.02 480.661 172.153C483.65 172.177 486.326 172.151 488.919 171.242C489.935 170.886 490.523 170.285 490.682 169.241C490.775 168.628 490.884 168.017 490.948 167.401C490.994 166.958 491.099 166.627 491.591 166.47C492.504 166.179 492.775 165.411 492.929 164.554C493.188 163.118 493.144 161.666 493.209 160.219C493.246 159.391 493.069 158.703 492.158 158.514C491.674 158.414 491.717 158.112 491.723 157.785C491.745 156.672 491.782 155.559 491.792 154.446C491.798 153.812 492.036 153.37 492.602 153.031C493.816 152.303 494.894 151.393 495.808 150.307C497.188 148.668 498.966 147.357 499.938 145.381C503.251 138.654 501.637 132.348 497.636 126.691ZM487.866 169.779C485.569 170.426 483.212 170.425 480.851 170.37C478.04 170.305 475.23 170.876 472.419 170.381C469.472 169.861 468.993 169.932 468.936 167.389C468.932 167.199 468.794 167.012 468.666 166.691C474.801 166.683 480.802 166.513 486.797 166.874C487.086 166.891 487.393 166.828 487.663 166.904C488.235 167.066 489.095 166.362 489.363 167.227C489.696 168.297 488.922 169.482 487.866 169.779ZM491.317 162.868C491.071 164.844 491.057 164.916 489.076 164.909C485.104 164.896 481.132 164.764 477.16 164.74C474.475 164.723 471.789 164.847 469.104 164.831C466.819 164.817 466.759 164.72 466.404 162.416C466.284 161.64 466.199 160.859 466.084 159.975C469.778 160.131 473.397 160.28 476.961 159.877C481.587 159.355 486.133 160.329 490.721 160.198C491.259 160.182 491.48 160.322 491.426 160.883C491.363 161.543 491.398 162.213 491.317 162.868ZM476.125 133.716C475.369 135.478 474.777 137.277 474.672 139.207C474.604 140.456 474.677 141.681 475.206 142.85C475.693 143.926 476.528 144.612 477.663 144.685C478.912 144.766 479.919 144.138 480.452 142.978C481.441 140.828 481.143 138.612 480.615 136.418C480.296 135.094 479.947 133.761 478.926 132.754C478.62 132.452 478.736 132.192 478.911 131.871C479.778 130.289 481.938 129.928 483.261 131.17C484.673 132.495 485.142 134.258 485.424 136.072C485.666 137.628 485.8 139.202 485.745 140.454C485.812 146.373 484.055 151.522 481.868 156.554C481.66 157.033 481.731 157.847 481.116 157.95C479.979 158.139 478.799 158.223 477.655 158.13C477.324 158.103 477.019 157.346 476.762 156.889C473.7 151.448 471.315 145.77 471.326 139.399C471.33 137.387 471.787 135.369 472.76 133.542C473.473 132.204 474.825 131.891 476.105 132.683C476.7 133.053 476.252 133.42 476.125 133.716ZM477.807 133.957C478.968 136.417 479.531 138.733 479.102 141.206C478.979 141.917 478.786 142.761 477.794 142.758C476.815 142.755 476.656 141.952 476.494 141.219C475.934 138.697 476.774 136.437 477.807 133.957ZM498.341 144.57C497.448 146.437 495.743 147.64 494.465 149.193C493.587 150.259 492.511 151.096 491.366 151.839C490.369 152.486 489.887 153.32 489.955 154.532C490.015 155.606 489.915 156.689 489.947 157.766C489.966 158.419 489.746 158.633 489.09 158.578C487.193 158.417 485.291 158.306 483.263 158.166C484.348 155.644 485.304 153.157 486.086 150.604C487.717 145.274 488.127 139.886 486.933 134.415C486.648 133.109 486.133 131.894 485.302 130.826C483.216 128.144 479.961 128.069 477.771 130.664C477.487 131 477.358 131.409 476.709 131.148C473.103 129.7 471.564 131.359 470.476 134.817C469.182 138.934 469.358 143.034 470.739 147.133C472.03 150.963 473.207 154.829 475.6 158.439C473.017 158.439 470.621 158.416 468.226 158.455C467.612 158.465 467.467 158.247 467.428 157.685C467.29 155.702 467.045 153.732 466.581 151.791C466.399 151.029 466.03 150.574 465.261 150.328C459.261 148.406 456.566 144.102 455.779 137.992C455.051 132.337 457.939 128.592 461.402 124.864C469.425 116.228 487.317 116.537 495.916 127.53C499.81 132.506 501.313 138.359 498.341 144.57Z" fill="#0E0816"/>
<path d="M462.852 127.557C462.134 127.57 461.616 127.961 461.145 128.438C458.808 130.801 457.897 133.727 457.781 136.962C457.711 138.095 457.859 139.196 458.195 140.27C458.375 140.845 458.477 141.676 459.303 141.478C460.199 141.263 459.829 140.439 459.774 139.818C459.767 139.737 459.726 139.66 459.706 139.58C458.919 136.526 459.514 133.671 461.105 131.032C461.671 130.093 462.545 129.339 463.28 128.502C463.443 128.317 463.651 128.142 463.485 127.866C463.346 127.637 463.126 127.552 462.852 127.557Z" fill="#0E0816"/>
<path d="M495.842 135.227C496.332 138.2 495.57 140.778 493.532 142.998C493.236 143.32 492.918 143.763 493.441 144.177C493.936 144.569 494.363 144.359 494.72 143.937C496.365 141.995 497.46 139.827 497.476 137.283C497.438 136.393 497.509 135.552 496.972 134.836C496.75 134.54 496.518 134.07 496.163 134.159C495.662 134.283 495.783 134.864 495.842 135.227Z" fill="#0E0816"/>
</g>
<path opacity="0.5" d="M1316.43 172.899C1317.88 173.898 1319.47 174.185 1321.15 173.898C1323 173.581 1324.32 172.522 1324.86 170.665C1325.46 168.603 1325.46 166.666 1323.7 165.054C1322 163.491 1319.91 162.356 1318.68 160.309C1314.14 156.67 1309.68 152.965 1304.75 149.899C1302.79 148.683 1300.75 148.727 1298.74 149.87C1295.85 151.507 1295.2 154.253 1297.01 157.024C1297.96 158.466 1299.16 159.678 1300.49 160.723C1305.75 164.851 1310.91 169.109 1316.43 172.899ZM1298.35 155.946C1297.72 154.895 1297.13 153.735 1297.99 152.604C1298.98 151.301 1300.34 150.516 1302.07 150.712C1302.86 150.802 1303.57 151.143 1304.24 151.58C1307.92 153.974 1311.42 156.629 1314.76 159.46C1315.94 160.463 1317.01 161.692 1318.17 162.777C1318.86 163.411 1319.07 164.414 1318.52 165.176C1317.89 166.064 1316.8 165.959 1315.9 165.584C1314.02 164.795 1312.35 163.639 1310.78 162.341C1308.01 160.042 1305.27 157.704 1302.51 155.393C1302 154.963 1301.22 154.393 1300.77 154.936C1300.25 155.55 1300.99 156.301 1301.48 156.711C1305.43 160.029 1309.11 163.687 1313.56 166.37C1314.87 167.157 1316.22 167.794 1317.85 167.523C1319.37 167.27 1320.35 166.538 1320.6 164.832C1321.11 165.213 1321.51 165.503 1321.9 165.814C1323.51 167.106 1323.86 169.244 1322.73 170.899C1321.8 172.255 1319.58 172.653 1317.9 171.725C1316.19 170.784 1314.63 169.608 1313.09 168.425C1309.28 165.5 1305.51 162.528 1301.76 159.537C1300.46 158.502 1299.21 157.392 1298.35 155.946Z" fill="#0D0615"/>
</g>
<defs>
<clipPath id="clip0_80_12">
<rect width="1440" height="1024" fill="white"/>
</clipPath>
</defs>
</svg>
