<svg width="1280" height="832" viewBox="0 0 1280 832" fill="none" xmlns="http://www.w3.org/2000/svg">
<g clip-path="url(#clip0_80_12)">
<rect width="1280" height="832" fill="#D9D9D9"/>
<path opacity="0.5" d="M296.416 229.88C295.8 230.179 295.187 230.483 294.505 230.818C294.645 230.009 294.803 229.317 294.878 228.619C295.006 227.437 294.329 227.013 293.113 227.446C292.636 227.616 292.261 228.031 291.668 228.023C291.745 227.356 291.741 226.738 291.903 226.161C292.121 225.389 291.504 224.837 291.195 224.345C290.789 223.703 289.945 224.099 289.403 224.571C288.044 225.75 286.697 226.944 285.271 228.231C285.271 227.838 285.279 227.446 285.27 227.054C285.168 222.608 285.413 218.17 285.581 213.728C285.757 209.084 285.604 204.431 285.7 199.784C285.811 194.396 285.203 189.016 285.565 183.627C285.601 183.081 285.378 182.58 284.554 182.594C283.746 182.607 282.937 182.51 282.128 182.502C276.605 182.444 271.087 182.683 265.568 182.745C255.423 182.858 245.276 182.757 235.13 182.757C231.379 182.757 227.627 182.801 223.876 182.81C219.909 182.819 215.941 182.812 211.785 182.812C212.925 181.351 214.14 180.159 214.798 178.656C215.094 177.982 215.846 177.182 214.967 176.547C214.14 175.949 213.501 176.781 212.857 177.163C211.621 177.897 211.176 177.712 211.047 176.371C211.034 176.237 211.023 176.102 211.021 175.967C211.016 175.552 210.992 175.114 210.523 174.922C210.003 174.708 209.627 175.01 209.265 175.327C208.495 176.003 207.748 176.7 206.881 177.282C206.302 177.671 206.064 177.539 205.92 176.942C205.743 176.207 205.828 175.464 205.756 174.728C205.677 173.914 205.193 173.677 204.397 174.041C204.178 174.141 204.029 174.384 203.72 174.246C202.974 173.912 202.495 174.359 202.146 174.814C200.643 176.774 198.833 178.496 197.143 180.311C196.037 181.499 195.119 182.819 193 182.625C191.631 182.5 191.415 182.76 191.576 184.003C191.833 185.981 191.156 187.49 189.671 188.968C187.157 191.47 185.455 194.529 183.399 197.347C183.045 197.832 182.994 198.364 183.379 198.855C183.744 199.32 184.249 199.346 184.853 199.252C185.439 199.162 185.99 198.792 186.645 198.959C186.265 200.288 186.075 201.582 186.049 202.9C186.04 203.364 186.085 203.781 186.582 204.028C187.138 204.304 187.547 204.031 187.984 203.745C188.521 203.395 189.101 203.099 189.66 202.778C189.978 202.595 190.304 202.506 190.463 202.916C190.77 203.702 191.385 204.404 191.365 205.279C191.243 210.369 191.623 215.446 191.771 220.528C191.891 224.636 191.582 228.746 191.677 232.849C191.861 240.829 191.847 248.815 192.429 256.785C192.539 258.276 192.892 258.67 194.576 258.657C198.592 258.625 202.608 258.574 206.624 258.536C214.472 258.463 222.319 258.376 230.167 258.329C235.918 258.294 241.669 258.313 247.421 258.31C250.725 258.307 254.03 258.309 257.569 258.309C257.162 258.925 256.901 259.279 256.688 259.656C256.477 260.03 256.391 260.431 256.744 260.784C257.096 261.136 257.503 261.11 257.949 260.914C258.653 260.603 259.408 260.439 260.187 260.42C261.04 260.398 261.626 260.656 261.539 261.588C261.492 262.09 261.502 262.6 261.525 263.105C261.576 264.199 262.272 264.622 263.374 264.211C264.079 263.948 264.757 263.623 265.585 263.266C265.585 263.963 265.551 264.533 265.596 265.099C265.63 265.539 265.76 265.989 266.305 266.147C266.794 266.288 267.136 266.021 267.478 265.742C268.164 265.182 268.849 264.619 269.573 264.102C271.582 262.666 273.5 261.14 275.063 259.289C275.506 258.765 275.965 258.601 276.645 258.615C278.71 258.657 280.775 258.645 282.841 258.664C283.827 258.673 284.51 258.321 284.573 257.362C284.744 254.739 284.974 252.113 284.984 249.489C284.989 248.11 285.389 246.991 286.391 246.019C289.796 242.714 292.491 238.945 295.013 235.059C295.876 233.728 296.808 232.436 297.681 231.11C297.932 230.728 298.078 230.272 297.648 229.905C297.276 229.584 296.832 229.679 296.416 229.88ZM191.381 196.355C191.381 197.804 191.367 199.252 191.377 200.701C191.38 201.079 191.381 201.282 190.811 201.208C189.686 201.062 188.825 201.775 187.775 202.224C187.795 201.209 187.94 200.39 188.186 199.573C188.689 197.903 188.053 197.294 186.181 197.578C185.791 197.637 185.43 197.879 184.958 197.733C186.949 194.767 188.863 191.776 191.382 189.216C191.382 191.607 191.383 193.981 191.381 196.355ZM202.56 176.564C202.715 176.367 202.876 176.187 203.189 176.375C203.599 176.622 203.959 176.299 204.346 176.26C204.368 176.322 204.405 176.383 204.407 176.445C204.465 177.446 204.642 178.504 205.667 178.98C206.747 179.48 207.596 178.654 208.414 178.103C208.826 177.827 209.189 177.49 209.63 177.136C209.909 177.809 210.098 178.492 210.832 178.849C211.531 179.188 212.258 178.879 213.047 178.944C212.281 180.236 211.253 181.281 210.296 182.373C210.088 182.611 209.829 182.661 209.518 182.654C205.481 182.567 201.444 182.485 197.407 182.401C197.381 182.4 197.357 182.365 197.246 182.283C199.023 180.328 200.971 178.585 202.56 176.564ZM193.789 184.028C193.68 184.389 193.501 184.679 193.091 184.817C192.906 183.984 192.906 183.984 193.789 184.028ZM193.13 187.525C193.153 186.918 193.728 186.628 193.981 186.161C194.988 184.299 196.544 183.645 198.838 183.817C201.798 184.04 204.788 183.944 207.764 183.997C208.039 184.002 208.412 183.859 208.573 184.127C208.738 184.4 208.407 184.611 208.253 184.821C206.221 187.587 204.069 190.265 201.728 192.829C198.853 195.977 195.972 199.13 193.392 202.495C193.293 202.623 193.173 202.738 192.937 202.995C192.845 197.691 192.937 192.608 193.13 187.525ZM267.176 264.151C267.14 263.536 267.149 263.064 267.077 262.604C266.933 261.672 266.393 261.43 265.442 261.851C264.692 262.184 263.95 262.535 263.178 262.891C262.788 259.476 262.067 258.816 259.152 259.189C259.314 258.722 259.565 258.462 260.132 258.463C264.619 258.474 269.106 258.469 273.893 258.469C271.928 260.88 269.575 262.44 267.176 264.151ZM283.173 256.928C283.172 257.272 282.967 257.355 282.598 257.351C280.811 257.331 279.023 257.342 277.236 257.342C279.379 254.941 281.545 252.776 283.174 250.382C283.174 252.535 283.176 254.731 283.173 256.928ZM283.826 236.364C283.581 239.763 283.714 243.166 283.647 246.567C283.638 247.016 283.562 247.407 283.304 247.806C281.121 251.193 278.306 254.118 275.386 256.971C275.086 257.264 274.753 257.259 274.387 257.257C270.153 257.233 265.919 257.21 261.685 257.187C261.473 257.186 261.199 257.257 261.09 257.048C260.953 256.787 261.241 256.618 261.385 256.447C264.221 253.095 267.062 249.741 270.298 246.7C273.691 243.511 276.654 239.988 279.845 236.643C281.102 235.325 282.398 234.039 283.839 232.571C283.839 233.965 283.912 235.169 283.826 236.364ZM283.738 223.679C283.717 225.562 283.791 227.447 283.861 229.329C283.883 229.909 283.71 230.357 283.286 230.788C278.061 236.088 273.243 241.711 267.872 246.899C264.885 249.784 262.205 252.921 259.636 256.126C259.027 256.885 258.366 257.157 257.335 257.141C251.738 257.053 246.138 256.98 240.541 257.008C225.37 257.085 210.199 257.207 195.029 257.352C194.085 257.361 193.861 257.097 193.834 256.31C193.64 250.621 193.433 244.933 193.31 239.241C193.188 233.579 193.355 227.923 193.307 222.265C193.262 217.048 192.863 211.837 192.856 206.615C192.854 205.098 193.798 204.187 194.6 203.164C197.884 198.976 201.578 195.084 205.1 191.067C206.845 189.076 208.365 186.919 209.957 184.819C210.333 184.323 210.762 184.151 211.42 184.152C220.618 184.171 229.817 184.165 239.015 184.165C239.015 184.167 239.015 184.169 239.015 184.171C247.949 184.171 256.886 184.275 265.818 184.127C270.252 184.054 274.691 184.033 279.125 183.853C280.549 183.795 281.982 183.928 283.413 183.941C283.945 183.946 284.073 184.128 284.073 184.604C284.084 192.04 284.079 199.476 284.158 206.911C284.216 212.507 283.798 218.089 283.738 223.679ZM285.298 244.984C285.298 241.947 285.285 238.868 285.303 235.79C285.312 234.342 285.383 232.895 285.418 231.448C285.427 231.079 285.401 230.74 285.704 230.412C287.125 228.876 288.492 227.296 290.306 225.938C290.369 226.703 290.241 227.369 290.139 228.046C290.052 228.62 289.807 229.276 290.477 229.72C291.136 230.156 291.735 229.8 292.33 229.535C292.613 229.409 292.899 229.285 293.212 229.149C293.265 229.722 293.067 230.198 292.965 230.689C292.613 232.384 293.193 232.875 295.106 232.427C292.003 236.782 289.513 241.459 285.298 244.984Z" fill="#0D0615"/>
<g opacity="0.5">
<path d="M1042.27 351.518C1041.31 350.336 1039.89 349.672 1038.42 348.96C1039.09 348.378 1039.7 347.852 1040.31 347.323C1043.64 344.426 1043.64 341.039 1040.66 337.807C1036.69 333.496 1031.57 331.997 1025.52 333.503C1024.78 330.039 1022.55 327.837 1018.74 327.182C1015.88 326.69 1013.12 327.429 1010.47 328.396C1008.68 329.048 1007.16 330.109 1005.6 331.166C1004.45 326.821 1002.3 325.317 999.317 325.047C994.567 324.614 992.269 327.234 991.258 331.205C988.589 329.175 985.708 327.867 982.406 327.296C979.142 326.732 976.21 327.075 973.694 329.258C972.335 330.437 971.61 331.867 971.362 333.536C969.926 333.105 968.527 332.928 967.14 332.939C962.448 332.979 958.59 334.805 955.862 338.19C953.203 341.485 953.334 344.493 956.634 347.389C957.213 347.897 957.801 348.397 958.425 348.935C958.216 349.059 958.08 349.161 957.926 349.227C953.531 351.14 952.097 354.649 952.002 358.746C951.933 361.72 953.684 364.072 955.798 366.144C958.525 368.816 961.949 369.887 965.942 369.549C968.365 369.344 970.563 368.59 972.722 367.496C973.172 370.893 975.901 373.6 979.28 374.159C982.935 374.763 986.165 373.991 988.949 371.623C990.205 374.052 992.237 375.319 995.051 375.677C996.406 375.85 997.746 375.726 999.089 375.807C1000.64 375.9 1002.15 375.695 1003.63 375.289C1005.69 374.722 1006.98 373.333 1007.94 371.646C1011.1 374.26 1014.69 375.026 1018.63 373.863C1021.9 372.899 1023.61 370.607 1024.19 367.529C1024.55 367.7 1024.91 367.864 1025.26 368.033C1027.51 369.113 1029.92 369.687 1032.44 369.638C1036.21 369.565 1039.25 368.103 1041.74 365.49C1046.12 360.885 1045.52 355.492 1042.27 351.518ZM1030.92 368.085C1028.31 367.746 1025.98 366.819 1023.81 365.506C1023.41 365.265 1023.04 365.089 1022.6 365.342C1022.28 365.525 1022.19 365.824 1022.31 366.141C1023.23 368.715 1021.78 370.442 1019.71 371.799C1016.97 373.589 1012.07 373.109 1009.65 370.955C1009.09 370.456 1008.71 369.85 1008.38 369.202C1008.18 368.798 1007.8 368.574 1007.3 368.728C1006.85 368.866 1006.77 369.19 1006.78 369.613C1006.83 371.569 1005.64 372.846 1003.84 373.63C1002.29 374.303 1000.63 374.46 998.889 374.261C997.631 374.117 996.355 374.441 995.059 374.217C993.272 373.908 991.777 373.271 990.768 371.834C990.298 371.163 989.974 370.459 990.085 369.649C990.149 369.183 990.022 368.839 989.503 368.711C989.044 368.597 988.741 368.827 988.496 369.161C986.156 372.362 983.098 373.525 979.078 372.605C976.592 372.037 975.068 370.455 974.342 368.245C974.153 367.671 974.165 367.035 974.432 366.46C974.622 366.052 974.733 365.664 974.301 365.368C973.836 365.048 973.429 365.283 973 365.54C971.111 366.672 969.11 367.596 966.86 367.937C961.633 368.729 957.97 367.043 954.885 362.859C952.356 359.429 953.665 354.458 955.724 352.297C956.698 351.274 957.997 350.716 959.248 350.077C960.486 349.445 960.561 348.778 959.504 347.878C958.777 347.259 958.006 346.679 957.319 346.024C955.127 343.938 954.708 342.155 956.855 339.117C958.934 336.178 963.278 334.251 967.158 334.316C968.612 334.417 970.15 334.424 971.49 335.33C972.267 335.855 972.882 335.485 972.935 334.566C973.177 330.37 976.147 328.029 980.653 328.484C983.398 328.761 985.95 329.524 988.248 330.962C989.135 331.516 989.982 332.09 990.622 332.898C990.909 333.26 991.321 333.566 991.84 333.427C992.305 333.302 992.43 332.873 992.507 332.466C992.751 331.174 992.983 329.874 993.766 328.736C994.814 327.213 996.184 326.316 998.302 326.485C1001.95 326.779 1003.54 328.067 1004.18 331.428C1004.31 332.136 1004.15 333.095 1005 333.38C1005.94 333.696 1006.28 332.703 1006.85 332.231C1009.12 330.375 1011.74 329.142 1014.76 328.695C1015.73 328.55 1016.73 328.453 1017.72 328.433C1020.64 328.375 1023.71 330.828 1023.99 333.425C1024.03 333.82 1023.92 334.228 1023.94 334.626C1024 335.453 1024.53 335.793 1025.25 335.408C1028.41 333.716 1031.64 334.039 1034.76 335.311C1037.69 336.5 1040.1 338.293 1041.13 341.248C1041.62 342.632 1041.38 343.898 1040.43 345.065C1039.6 346.105 1038.54 346.943 1037.49 347.784C1036.24 348.778 1036.28 349.509 1037.79 350.132C1041.98 351.865 1043.59 355.016 1043.38 358.945C1043.09 364.339 1036.77 368.844 1030.92 368.085Z" fill="#120F14"/>
<path d="M961.236 352.246C960.931 351.78 960.411 351.85 959.96 352.029C959.666 352.145 959.393 352.352 959.172 352.57C957.252 354.455 956.202 356.677 956.069 359.316C956.112 360.509 956.467 361.603 957.465 362.531C958.221 363.234 959.19 363.664 959.96 364.34C960.244 364.589 960.686 364.651 960.962 364.377C961.26 364.08 961.392 363.68 961.049 363.282C960.608 362.77 960.006 362.442 959.437 362.077C958.391 361.406 957.642 360.558 957.677 359.333C957.749 356.873 958.737 354.77 960.733 353.089C961.006 352.858 961.549 352.723 961.236 352.246Z" fill="#120F14"/>
<path d="M1036.04 339.13C1035.3 337.876 1034.18 337.045 1032.54 337.008C1031.83 336.992 1030.88 337.085 1030.82 337.774C1030.76 338.587 1031.84 338.432 1032.37 338.436C1033.73 338.446 1034.46 339.086 1034.95 340.112C1035.56 341.399 1035.66 342.702 1035.08 344.027C1034.91 344.412 1034.78 344.843 1035.33 345.059C1035.93 345.293 1036.24 344.903 1036.41 344.476C1036.67 343.815 1037 343.161 1036.96 342.7C1036.9 341.268 1036.64 340.147 1036.04 339.13Z" fill="#120F14"/>
<path d="M1038.83 354.189C1038.31 354.386 1038.68 354.765 1038.67 355.066C1038.67 355.381 1038.87 355.633 1038.99 355.914C1040.04 358.503 1039.92 360.332 1037.98 362.032C1037.69 362.287 1037.39 362.534 1037.14 362.823C1036.91 363.1 1036.8 363.43 1037.15 363.725C1037.47 363.986 1037.78 363.866 1038.05 363.677C1039.81 362.444 1041.05 360.931 1041.14 358.728C1040.97 357.305 1040.97 355.764 1039.78 354.542C1039.54 354.292 1039.23 354.035 1038.83 354.189Z" fill="#120F14"/>
<path d="M965.322 364.832C964.871 365.042 964.449 365.143 964.076 365.098C963.37 365.056 962.69 365.005 962.585 365.711C962.458 366.572 963.295 366.472 963.866 366.595C964.383 366.707 964.895 366.644 965.372 366.448C965.823 366.263 966.182 365.979 966.215 365.481C966.254 364.883 965.986 364.524 965.322 364.832Z" fill="#120F14"/>
<path d="M1035.09 347.093C1034.82 347.125 1034.64 347.307 1034.66 347.571C1034.69 347.783 1034.84 347.923 1035.16 347.909C1035.38 347.886 1035.6 347.763 1035.58 347.494C1035.57 347.248 1035.38 347.057 1035.09 347.093Z" fill="#120F14"/>
</g>
<path opacity="0.5" d="M783.564 195.725C784.311 200.64 783.723 205.453 780.996 209.889C780.446 210.782 780.812 211.321 782.105 211.462C785.244 211.804 788.383 212.131 791.523 212.467C792.654 212.588 793.786 212.712 794.916 212.843C795.61 212.924 796.097 212.718 796.464 212.137C797.779 210.06 797.909 207.778 797.681 205.506C797.25 201.207 795.686 197.199 793.546 193.366C790.564 188.028 786.988 183.099 781.879 179.189C782.768 178.635 783.573 178.11 784.405 177.625C784.799 177.395 785.138 177.159 785.121 176.694C785.102 176.196 784.695 176.091 784.258 175.924C782.005 175.07 779.603 175.004 777.238 174.786C775.042 174.583 772.885 174.173 770.704 173.903C769.21 173.719 768.55 174.444 769.058 175.775C769.3 176.409 769.589 177.033 769.918 177.634C771.225 180.021 772.033 182.57 772.851 185.117C773.011 185.613 773.178 186.113 773.827 186.217C774.456 186.318 774.71 185.868 775.016 185.48C775.871 184.394 776.751 183.323 777.724 182.119C780.517 186.438 782.822 190.841 783.564 195.725ZM780.664 183.978C780.107 182.928 779.393 181.937 778.656 180.978C777.973 180.089 777.439 180.147 776.748 180.992C775.923 181.999 775.342 183.172 774.202 184.179C773.465 181.075 772.044 178.329 770.644 175.362C774.635 176.214 778.564 176.268 782.748 176.987C781.693 177.574 780.945 178.063 780.125 178.416C779.732 178.585 779.341 178.674 779.345 179.116C779.348 179.544 779.612 179.943 780.055 180.03C780.764 180.169 781.214 180.606 781.673 181.022C782.927 182.158 784.182 183.297 785.361 184.499C787.831 187.017 789.672 189.93 791.444 192.874C793.801 196.793 795.501 200.929 796.119 205.391C796.356 207.107 796.201 208.808 795.687 210.479C795.465 211.201 795.16 211.576 794.156 211.447C790.596 210.987 787.018 210.638 783.444 210.274C782.801 210.208 782.536 210.159 782.893 209.466C785.05 205.291 785.647 200.856 785.18 196.31C784.725 191.897 782.749 187.908 780.664 183.978Z" fill="#0D0615"/>
<path opacity="0.5" d="M318.738 598.972C320.217 599.466 321.591 600.203 322.908 601.011C323.224 601.205 323.289 601.403 323.31 601.744C323.451 603.96 323.716 606.165 324.384 608.31C324.937 610.083 326.93 610.85 328.695 609.961C329.85 609.38 330.907 608.653 332.087 608.099C332.546 607.884 332.766 607.919 333.136 608.145C334.234 608.815 335.403 609.368 336.662 609.744C338.54 610.304 338.868 610.236 339.551 608.571C342.814 600.626 346.908 592.971 349.443 584.771C350 582.969 350.829 581.237 351.092 579.424C351.099 578.761 350.926 578.149 350.448 577.81C349.95 577.457 349.431 577.961 348.94 578.148C348.807 578.198 348.686 578.287 348.573 578.372C347.194 579.391 345.692 580.241 344.168 581.064C338.437 584.162 333.013 587.699 327.354 590.901C324.25 592.658 321.318 594.63 318.434 596.669C317.139 597.586 316.694 598.292 318.738 598.972ZM328.092 608.546C328.597 607.52 328.992 606.713 329.418 605.848C329.951 606.206 330.446 606.539 331.006 606.915C330.063 607.441 329.18 607.937 328.092 608.546ZM349.165 580.837C348.786 582.739 347.889 584.478 347.34 586.315C345.202 593.456 341.34 599.997 338.73 606.976C338.102 608.656 337.998 608.667 336.236 607.933C334.052 607.022 332.079 605.796 330.205 604.424C329.495 603.904 329.503 603.498 329.979 602.847C332.213 599.787 335.002 597.125 337.388 594.18C341.112 589.586 345.509 585.489 349.165 580.837ZM344.362 584.064C343.084 585.426 341.706 586.72 340.546 588.161C336.971 592.606 332.849 596.654 329.349 601.15C328.246 602.567 327.433 604.055 327.19 605.809C327.072 606.663 326.822 607.518 326.284 608.453C325.571 607.272 325.533 606.062 325.323 604.895C325.139 603.871 325.054 602.83 324.829 601.815C324.715 601.303 325.011 601.074 325.326 600.798C328.166 598.303 331.044 595.843 333.835 593.303C336.651 590.739 339.37 588.087 342.158 585.496C342.782 584.916 343.51 584.43 344.362 584.064ZM341.092 584.4C335.875 589.703 330.357 594.73 324.641 599.576C324.381 599.797 324.19 600.13 323.739 599.803C322.491 598.897 321.009 598.362 319.437 597.618C326.328 592.65 333.925 588.832 341.092 584.4Z" fill="#0D0615"/>
<path opacity="0.5" d="M69.6625 427.956C68.8492 428.231 68.1781 428.686 67.6003 429.269C65.6883 431.197 66.8803 434.655 69.6527 435.216C69.9256 435.271 70.3052 435.214 70.3283 435.59C70.3523 435.979 70.4634 436.409 70.0439 436.711C69.6679 436.982 69.2599 437.22 68.9167 437.522C66.5496 439.599 66.9719 442.552 69.8296 443.991C70.6403 444.399 70.5941 444.829 69.7096 445.341C68.0092 446.325 67.4163 447.828 67.4421 449.574C67.4652 451.1 68.2074 452.226 69.8492 452.726C70.2501 452.848 70.3283 453.049 70.3496 453.388C70.3754 453.811 70.1488 453.915 69.7541 454.069C67.9701 454.77 67.3336 456.112 67.3745 457.817C67.4101 459.277 68.0314 460.406 69.4865 461.069C70.6901 461.617 70.7683 462.833 69.7008 463.602C67.0563 465.506 65.435 468.765 69.931 471.269C70.6288 471.657 70.6385 472.095 69.8768 472.399C68.6279 472.898 67.9292 473.78 67.4856 474.901C66.5861 477.177 67.3301 479.119 69.4652 480.017C69.9212 480.209 70.4474 480.285 70.4359 480.938C70.4243 481.563 70.3932 482.014 69.6625 482.421C67.6999 483.518 67.3843 486.644 69.0785 487.962C69.795 488.519 70.6972 488.857 70.4794 489.942C70.4554 490.061 70.6394 490.317 70.7674 490.343C71.8136 490.55 72.6101 491.251 73.683 491.453C78.9861 492.451 84.3434 493.107 89.707 493.747C94.8643 494.362 100.037 494.585 105.242 494.61C111.803 494.641 118.356 494.605 124.907 494.279C126.724 494.189 127.124 493.79 127.175 492.109C127.181 491.909 127.184 491.708 127.175 491.508C127.135 490.668 127.507 490.35 128.461 490.509C129.435 490.672 130.023 490.317 129.916 489.302C129.885 489.006 129.975 488.701 129.975 488.401C129.978 476.936 129.977 465.472 129.977 454.008C129.985 454.008 129.993 454.008 130.001 454.008C130.001 446.825 129.999 439.643 130.002 432.459C130.004 428.042 129.981 423.625 130.036 419.208C130.058 417.416 129.566 416.816 127.631 416.828C123.219 416.854 118.807 416.94 114.396 416.949C100.626 416.975 86.8563 417.04 73.0874 416.815C70.7479 416.776 70.2119 417.271 70.3132 419.39C70.339 419.931 70.2421 420.235 69.5968 420.398C68.3603 420.709 67.611 421.486 67.3443 422.652C66.9114 424.541 67.7816 426.202 69.6776 427.075C69.9248 427.189 70.3052 427.187 70.3096 427.548C70.3141 427.941 69.9123 427.871 69.6625 427.956ZM70.3079 442.507C69.5123 442.289 69.035 441.849 68.9283 441.205C68.7381 440.05 69.1159 439.048 70.3079 438.141C70.3079 439.695 70.3079 441.06 70.3079 442.507ZM70.3408 451.286C68.3914 450.613 68.347 448.125 70.3408 446.542C70.3408 448.206 70.3408 449.734 70.3408 451.286ZM70.1985 459.669C70.0608 459.702 69.8545 459.592 69.715 459.501C68.5665 458.754 68.5896 456.283 69.7425 455.563C70.1425 455.312 70.4128 455.245 70.379 455.848C70.347 456.415 70.3719 456.985 70.3719 457.552C70.3754 457.552 70.3799 457.552 70.3843 457.552C70.3843 458.087 70.3923 458.622 70.3799 459.156C70.3754 459.341 70.4741 459.604 70.1985 459.669ZM70.3221 469.68C68.147 468.273 68.1354 466.61 70.3221 464.898C70.3221 466.512 70.3221 468.043 70.3221 469.68ZM70.3763 478.906C69.4447 478.588 68.6999 478.272 68.6616 477.264C68.611 475.913 68.7141 474.644 70.3763 473.781C70.3763 475.576 70.3763 477.196 70.3763 478.906ZM70.3967 487.07C69.1896 486.476 69.179 484.74 70.3967 483.876C70.3967 484.959 70.3967 486.006 70.3967 487.07ZM80.1336 491.263C79.0972 491.06 78.0634 490.85 77.0287 490.641C76.9212 490.619 76.8154 490.593 76.7088 490.568C76.6919 490.533 76.675 490.499 76.6581 490.464C77.8563 490.464 79.0536 490.456 80.2519 490.469C80.5043 490.472 80.9461 490.323 80.9496 490.668C80.9532 491.042 80.6625 491.366 80.1336 491.263ZM83.443 491.034C83.115 491.31 82.9123 491.812 82.2972 491.599C82.1585 491.551 82.0057 491.456 82.1194 491.311C82.4137 490.937 82.6767 490.506 83.2856 490.511C83.4287 490.512 83.5719 490.525 83.8981 490.543C83.6696 490.792 83.5701 490.927 83.443 491.034ZM86.1612 490.994C85.7577 491.44 85.4874 492.122 84.4705 491.71C85.0119 491.324 85.1532 490.733 85.779 490.549C85.9656 490.494 86.1407 490.46 86.2883 490.595C86.4936 490.784 86.259 490.886 86.1612 490.994ZM89.955 491.072C89.2376 492.153 88.2954 492.629 86.9025 491.903C87.5194 490.945 88.347 490.347 89.6563 490.483C89.8474 490.503 90.0314 490.486 90.1336 490.643C90.259 490.835 90.0439 490.938 89.955 491.072ZM90.4776 492.505C90.1523 492.229 90.5265 492.08 90.6794 491.959C91.4216 491.37 91.7096 490.102 93.4767 490.636C92.6607 491.297 91.9523 491.861 91.2572 492.44C91.0021 492.653 90.7381 492.726 90.4776 492.505ZM92.8936 492.873C93.699 492.095 94.5256 491.297 95.3514 490.499C94.5585 491.319 94.4519 492.853 92.8936 492.873ZM96.1336 492.016C96.8785 490.658 96.8785 490.658 97.6616 490.611C97.3381 491.25 96.9363 491.62 96.1336 492.016ZM97.1034 492.996C97.9256 492.194 98.6705 491.376 99.5274 490.672C99.9443 490.329 100.568 490.585 101.135 490.716C99.8288 491.526 99.6421 493.907 97.1034 492.996ZM100.779 493.172C101.956 492.093 102.375 490.1 104.879 490.586C103.522 491.562 102.928 493.328 100.779 493.172ZM103.952 493.198C105.314 492.425 105.551 490.354 107.695 490.554C106.381 491.376 105.656 492.874 103.952 493.198ZM108.751 493.095C108.131 493.573 107.23 493.184 106.414 493.148C107.97 492.203 108.823 490.183 111.355 490.533C110.431 491.462 109.681 492.377 108.751 493.095ZM110.21 493.412C110.72 492.508 111.699 492.102 112.079 491.377C112.639 490.313 113.481 490.42 114.582 490.533C113.776 491.548 112.75 492.217 112.078 493.185C111.691 493.742 110.96 493.319 110.21 493.412ZM115.309 493.165C114.965 493.528 114.084 493.406 113.075 493.336C114.927 492.456 115.306 490.1 117.904 490.568C117.151 491.571 116.134 492.294 115.309 493.165ZM116.975 493.166C117.915 492.26 118.758 491.435 119.621 490.629C119.803 490.459 120.12 490.39 120.314 490.563C120.607 490.823 120.222 490.962 120.087 491.113C119.623 491.63 119.095 492.102 118.658 492.638C118.259 493.125 117.782 493.307 116.975 493.166ZM119.982 493.205C120.744 492.123 121.432 490.971 122.909 490.571C121.93 491.446 121.266 492.622 119.982 493.205ZM123.779 492.856C123.544 493.363 122.887 493.112 122.354 493.125C123.298 492.149 124.08 491.01 125.491 490.55C124.983 491.387 124.187 491.971 123.779 492.856ZM71.7728 438.347C71.7381 437.607 72.0536 437.527 72.7265 437.605C73.4421 437.688 74.0279 438.05 74.6883 438.243C74.9168 438.309 75.1132 438.547 75.3719 438.301C75.6163 438.069 75.5603 437.81 75.4572 437.548C75.1399 436.737 74.3816 436.497 73.5656 436.344C73.2065 436.276 72.8341 436.172 72.4803 436.202C71.8359 436.259 71.7745 435.966 71.7781 435.492C71.7932 433.537 71.7959 431.582 71.7621 429.628C71.7532 429.12 71.9052 429.012 72.4519 429.069C73.2056 429.149 73.7354 429.522 74.259 429.953C74.4688 430.126 74.6847 430.462 74.9816 430.291C75.3141 430.1 75.2759 429.748 75.1665 429.386C74.8065 428.194 73.7239 427.884 72.6332 427.766C71.883 427.685 71.747 427.453 71.763 426.848C71.8021 425.332 71.771 423.814 71.7914 422.297C71.7941 422.062 71.5879 421.712 71.9932 421.609C72.3301 421.523 72.6519 421.671 72.8536 421.939C73.1648 422.353 73.4945 422.764 73.7301 423.214C73.867 423.477 73.9488 423.728 74.3132 423.692C74.7141 423.653 74.8154 423.337 74.9088 423.046C75.2208 422.074 74.0812 420.66 72.6741 420.306C72.1923 420.185 71.715 420.234 71.747 419.507C71.803 418.207 71.7363 418.201 73.219 418.207C84.4412 418.255 95.6625 418.331 106.885 418.343C113.76 418.35 120.637 418.278 127.511 418.19C128.313 418.18 128.538 418.435 128.546 419.055C128.57 420.969 128.609 422.882 128.607 424.796C128.599 430.781 128.573 436.765 128.56 442.75C128.553 446.481 128.559 450.212 128.559 453.942C128.539 453.942 128.519 453.942 128.5 453.942C128.5 463.941 128.5 473.94 128.5 483.939C128.5 485.389 128.464 486.839 128.514 488.287C128.535 488.866 128.371 489.021 127.731 489.02C119.886 489.001 112.041 489.012 104.196 489.012C98.7523 489.013 93.3088 489.012 87.8652 489.01C82.8021 489.008 77.739 488.995 72.6759 489.015C72.0501 489.017 71.7541 488.964 71.7825 488.281C71.8447 486.8 71.8305 485.315 71.7861 483.833C71.7683 483.233 72.043 483.065 72.6216 483.08C73.6607 483.109 74.6688 483.084 75.1523 484.237C75.4083 484.848 75.8696 484.679 76.163 484.156C76.6972 483.206 75.9488 481.979 74.6314 481.735C73.9523 481.609 73.2456 481.537 72.5541 481.552C72.0003 481.564 71.7817 481.49 71.7897 480.922C71.8234 478.698 71.8225 476.473 71.7817 474.25C71.771 473.68 71.9888 473.538 72.5354 473.642C73.363 473.801 74.2136 473.899 74.5301 474.822C74.6154 475.072 74.7683 475.455 75.1772 475.419C75.6279 475.379 75.6839 474.974 75.787 474.663C76.051 473.865 75.6287 473.044 74.7443 472.666C74.0403 472.364 73.2954 472.144 72.5123 472.146C71.9132 472.147 71.7843 471.902 71.7897 471.406C71.8128 469.317 71.8145 467.226 71.7879 465.136C71.7808 464.563 71.963 464.446 72.5567 464.615C73.5381 464.894 74.283 465.491 75.0519 466.058C75.2572 466.209 75.4279 466.439 75.6981 466.345C76.0101 466.236 76.0368 465.914 76.0617 465.652C76.1043 465.208 75.8279 464.891 75.4714 464.624C74.579 463.957 73.6403 463.376 72.443 463.289C71.9479 463.252 71.779 463.046 71.7843 462.57C71.8101 460.245 71.819 457.918 71.7656 455.594C71.7514 454.952 72.0803 454.974 72.5594 455.014C73.467 455.09 74.1097 455.564 74.6937 456.148C74.8794 456.333 75.0216 456.712 75.3621 456.548C75.6785 456.395 75.8039 456.051 75.8101 455.696C75.8181 455.246 75.5594 454.937 75.2163 454.662C74.4065 454.015 73.4279 453.751 72.3879 453.657C72.0234 453.624 71.7719 453.622 71.7772 453.172C71.8021 451.086 71.819 448.999 71.7736 446.914C71.7603 446.294 72.0181 446.241 72.5452 446.365C73.2661 446.536 73.9265 446.812 74.5097 447.242C74.7274 447.402 74.9452 447.675 75.267 447.45C75.5568 447.247 75.5976 446.933 75.5354 446.619C75.4083 445.983 74.8759 445.678 74.3123 445.408C74.1505 445.331 73.9745 445.278 73.8039 445.219C73.163 444.996 72.1736 445.166 71.9016 444.678C71.5861 444.11 71.787 443.297 71.7834 442.591C71.7825 441.178 71.8403 439.76 71.7728 438.347ZM70.2945 425.559C70.2945 425.58 70.2501 425.6 70.227 425.62C68.9345 424.96 68.3239 423.383 68.9816 422.343C69.2261 421.957 69.6207 421.583 70.1052 421.681C70.5212 421.765 70.3274 422.251 70.331 422.556C70.3416 423.557 70.3123 424.558 70.2945 425.559ZM70.315 433.191C70.3345 433.869 70.0021 433.824 69.5114 433.615C68.4074 433.146 67.9381 431.006 68.8154 430.172C69.1754 429.829 69.563 429.435 70.3052 429.281C70.3043 430.645 70.2785 431.919 70.315 433.191Z" fill="#0D0615"/>
<g opacity="0.5">
<path d="M163.096 802.887C162.484 802.949 161.929 803.182 161.799 803.803C161.672 804.401 162.145 804.721 162.624 804.996C163.401 805.443 164.183 805.883 164.972 806.312C165.37 806.529 165.463 806.737 165.11 807.081C164.531 807.644 163.967 808.223 163.442 808.827C163.11 809.211 162.695 809.618 163.063 810.183C163.391 810.687 163.932 810.615 164.443 810.589C166.975 810.463 169.505 810.229 172.046 810.402C172.374 810.424 172.652 810.332 172.842 810.131C173.515 809.421 174.315 808.755 174.669 807.879C174.903 807.3 175.233 807.295 175.717 807.295C177.78 807.298 179.843 807.296 181.906 807.296C181.906 807.304 181.906 807.314 181.906 807.323C183.933 807.323 185.959 807.33 187.985 807.319C188.544 807.316 189.355 807.492 189.351 806.714C189.349 806.078 188.615 805.976 188.011 805.931C187.791 805.915 187.569 805.922 187.348 805.922C183.479 805.916 179.611 805.887 175.743 805.924C174.952 805.931 174.631 805.73 174.415 805.025C174.143 804.137 174.039 803.002 172.573 802.97C169.414 802.902 166.257 802.565 163.096 802.887ZM168.801 807.239C170.281 807.406 171.801 807.273 173.319 807.273C173.292 807.416 173.295 807.478 173.268 807.527C172.481 808.955 171.151 809.171 169.575 808.979C168.853 808.891 168.103 808.968 167.368 809.002C166.692 809.033 166.018 809.106 165.265 809.167C166.102 807.827 167.052 807.041 168.801 807.239ZM172.09 804.496C172.977 804.527 172.737 805.324 173.186 805.983C170.089 805.585 166.952 806.776 164.512 804.334C167.082 804.167 169.586 804.409 172.09 804.496Z" fill="#0E0615"/>
<path d="M211.309 808.958C211.381 809.715 211.8 810.176 212.599 809.902C214.279 809.326 216.001 808.802 217.418 807.719C218.338 807.015 218.36 805.818 217.404 805.15C216.472 804.498 215.443 803.981 214.381 803.539C212.075 802.58 211.557 802.875 211.423 805.191C211.399 805.627 211.351 805.822 210.759 805.814C208.002 805.773 205.244 805.796 202.487 805.796C202.487 805.832 202.487 805.869 202.487 805.905C199.981 805.905 197.474 805.905 194.967 805.905C194.599 805.905 194.231 805.905 193.862 805.912C193.378 805.921 192.939 806.066 192.898 806.552C192.853 807.09 193.395 807.181 193.807 807.241C194.311 807.315 194.836 807.288 195.352 807.283C199.95 807.239 204.549 807.189 209.147 807.144C209.81 807.138 210.608 806.938 211.103 807.203C211.763 807.556 211.252 808.356 211.309 808.958ZM213.075 804.652C213.759 804.965 214.411 805.265 215.17 805.614C213.086 805.996 212.899 805.912 213.075 804.652ZM214.065 807.117C214.525 807.173 214.999 807.126 215.791 807.126C214.762 807.771 213.917 808.044 213.049 808.327C212.721 807.408 212.975 806.984 214.065 807.117Z" fill="#0D0615"/>
</g>
<path opacity="0.5" d="M935.179 817.065C937.371 817.081 939.566 816.832 941.759 816.701C945.175 816.498 948.599 816.36 952.006 816.063C953.559 815.928 954.75 815.688 954.395 813.807C954.383 813.742 954.381 813.669 954.397 813.606C955.381 809.803 955.851 805.93 956.039 802.04C956.137 800.003 956.773 798.012 956.469 795.932C956.335 795.019 955.905 794.901 955.135 794.892C948.044 794.809 940.954 794.71 933.863 794.64C930.848 794.61 927.832 794.635 924.816 794.635C924.816 794.705 924.816 794.775 924.816 794.845C923.932 794.845 923.047 794.838 922.163 794.847C919.768 794.871 917.373 794.906 914.978 794.925C914.22 794.931 913.958 795.207 913.843 795.94C913.623 797.344 914.023 798.678 914.135 800.04C914.384 803.082 914.671 806.124 915.037 809.156C915.221 810.687 915.821 812.196 915.847 813.721C915.877 815.517 916.461 815.913 918.575 816.09C921.543 816.339 924.522 816.47 927.497 816.648C930.057 816.801 932.617 817.047 935.179 817.065ZM953.579 809.556C951.909 806.862 949.895 804.402 948.187 801.774C950.352 800.304 952.761 799.009 955.006 797.278C954.375 801.427 954.415 805.509 953.579 809.556ZM954.009 796.306C950.359 798.884 946.803 801.121 942.814 802.769C940.808 803.597 938.906 804.639 936.982 805.626C935.743 806.26 934.595 806.229 933.343 805.611C929.913 803.919 926.391 802.38 923.013 800.608C920.727 799.408 918.587 797.961 916.384 796.312C928.958 795.953 941.351 795.964 954.009 796.306ZM915.328 797.258C917.671 799.047 920.009 800.317 922.158 801.775C920.452 804.382 918.465 806.846 916.77 809.527C915.961 805.534 915.959 801.501 915.328 797.258ZM917.356 812.951C917.105 812.006 917.336 811.284 917.879 810.502C919.513 808.151 921.115 805.779 922.664 803.38C923.159 802.614 923.517 802.397 924.513 802.845C927.251 804.078 929.926 805.414 932.599 806.753C934.321 807.615 936.03 807.615 937.745 806.753C940.514 805.362 943.277 803.962 946.129 802.714C946.77 802.434 947.095 802.513 947.451 803.051C949.239 805.751 951.033 808.449 952.883 811.114C953.281 811.687 953.1 812.204 953.038 812.75C952.989 813.183 952.76 813.611 952.782 814.033C952.812 814.632 952.531 814.601 952.01 814.627C947.527 814.849 943.046 815.131 938.563 815.364C937.425 815.424 936.281 815.373 935.14 815.373C935.138 815.432 935.136 815.489 935.135 815.548C929.918 815.249 924.701 814.942 919.482 814.655C917.713 814.557 917.784 814.564 917.356 812.951Z" fill="#0D0614"/>
<g opacity="0.5">
<path d="M1081 525.897C1079.45 525.975 1077.93 526.23 1076.47 526.717C1069.13 529.174 1064.79 533.996 1064.09 541.061C1063.41 547.912 1066.57 553.34 1073.08 556.867C1077.5 559.259 1082.36 559.743 1087.45 559.094C1093.39 558.336 1098 555.831 1101.23 551.183C1106.08 544.22 1104.11 534.291 1096.86 529.345C1093.9 527.318 1090.59 526.153 1086.91 525.898C1086.32 525.858 1086.14 525.697 1086.22 525.194C1086.26 524.931 1086.29 524.653 1086.24 524.397C1086.09 523.674 1086.46 523.47 1087.19 523.447C1088.21 523.415 1089.24 523.308 1090.26 523.222C1091.88 523.087 1092.57 522.429 1092.44 521.011C1092.22 518.526 1091.98 518.4 1090.02 518.39C1088 518.379 1085.98 518.581 1083.92 518.475C1081.93 518.578 1079.91 518.422 1077.89 518.377C1076.15 518.339 1075.55 518.884 1075.48 520.484C1075.47 520.787 1075.46 521.091 1075.47 521.394C1075.51 522.443 1076.04 523.02 1077.17 523.159C1078.23 523.288 1079.3 523.455 1080.36 523.423C1081.51 523.388 1081.87 523.791 1081.68 524.768C1081.65 524.931 1081.66 525.107 1081.69 525.273C1081.77 525.78 1081.5 525.871 1081 525.897ZM1077.74 521.827C1076.42 521.695 1076.93 520.863 1076.87 520.255C1076.77 519.36 1077.47 519.767 1077.9 519.779C1082.22 519.903 1086.55 519.984 1090.92 519.687C1091.11 521.666 1091.1 521.616 1089.15 521.881C1085.34 522.398 1081.54 522.207 1077.74 521.827ZM1083.93 525.89C1082.87 525.841 1083.38 525.12 1083.33 524.708C1083.29 524.35 1082.99 523.711 1083.92 523.713C1085.02 523.713 1084.37 524.474 1084.6 524.848C1084.42 525.234 1084.96 525.937 1083.93 525.89ZM1081.81 527.38C1083.48 527.305 1085.14 527.48 1086.82 527.317C1088.93 527.111 1090.97 527.779 1092.86 528.648C1099.09 531.519 1102.2 536.203 1102.42 542.618C1102.24 546.721 1100.67 550.313 1097.39 553.248C1094.32 555.992 1090.63 557.311 1086.37 557.656C1082.44 557.976 1078.63 557.682 1075.06 556.162C1068.61 553.414 1064.87 547.262 1065.56 540.829C1066.25 534.465 1071.31 529.17 1078.25 527.604C1079.41 527.343 1080.63 527.433 1081.81 527.38Z" fill="#0D0615"/>
<path d="M1072.82 553.526C1076.6 556.481 1081.11 557.261 1085.95 556.868C1091.61 556.41 1096 554.02 1098.66 549.436C1101.54 544.478 1101.11 539.5 1097.63 534.901C1094.35 530.553 1089.6 528.592 1083.87 528.537C1080.23 528.546 1076.9 529.46 1073.96 531.417C1065.9 536.775 1065.05 547.44 1072.82 553.526ZM1095.16 534.4C1098.69 538.002 1099.76 542.263 1098.04 546.87C1096.31 551.511 1092.58 554.226 1087.34 555.203C1086.21 555.413 1085.07 555.455 1084.34 555.417C1079.12 555.51 1075.07 554.025 1072.02 550.542C1068.14 546.119 1068.12 539.731 1071.95 535.227C1077.68 528.477 1088.9 528.033 1095.16 534.4Z" fill="#0D0615"/>
<path d="M1077.54 539.763C1079.5 541.199 1081.16 542.916 1082.82 544.623C1083.77 545.588 1084.1 545.593 1085.04 544.637C1086.77 542.89 1088.47 541.117 1090.5 539.647C1090.89 539.366 1091.08 538.966 1091.23 538.491C1091.1 538.279 1091.11 537.863 1090.59 538.134C1090.18 538.35 1089.75 538.54 1089.37 538.797C1087.61 539.989 1086.16 541.477 1084.75 542.981C1084.14 543.632 1083.87 543.785 1083.16 543.013C1081.72 541.442 1080.23 539.889 1078.37 538.706C1077.93 538.424 1077.33 537.713 1076.85 538.26C1076.4 538.768 1077.02 539.387 1077.54 539.763Z" fill="#0E0715"/>
</g>
<g opacity="0.5">
<path d="M442.343 102.936C439.332 99.0451 434.929 96.6556 429.749 95.6887C422.063 94.2538 414.953 95.072 409.099 100.383C405.784 103.392 403.163 106.672 403.604 111.32C404.103 116.565 406.049 120.858 411.86 122.885C412.877 123.239 413.557 123.809 413.503 124.865C413.426 126.382 414.799 128.01 413.099 129.411C413.04 129.459 413.092 129.608 413.062 129.701C412.756 130.626 412.838 131.58 413.039 132.483C413.292 133.624 413.357 134.964 415.077 135.268C415.524 135.347 415.259 135.686 415.233 135.934C415.021 137.964 416.002 139.205 418.168 139.647C418.635 139.742 419.11 139.796 419.581 139.873C422.228 140.31 424.875 139.766 427.254 139.874C429.911 139.894 432.29 139.872 434.595 139.134C435.498 138.845 436.02 138.356 436.162 137.508C436.244 137.01 436.341 136.514 436.398 136.013C436.439 135.653 436.532 135.384 436.97 135.257C437.781 135.02 438.022 134.396 438.159 133.7C438.389 132.533 438.35 131.353 438.408 130.178C438.441 129.505 438.283 128.946 437.474 128.792C437.043 128.711 437.082 128.466 437.087 128.2C437.107 127.296 437.139 126.391 437.148 125.487C437.154 124.972 437.365 124.613 437.868 124.337C438.947 123.746 439.906 123.007 440.718 122.124C441.945 120.793 443.525 119.727 444.389 118.122C447.334 112.656 445.899 107.533 442.343 102.936ZM433.659 137.945C431.617 138.471 429.522 138.47 427.423 138.425C424.924 138.373 422.427 138.837 419.928 138.434C417.308 138.012 416.883 138.07 416.832 136.003C416.828 135.849 416.706 135.697 416.592 135.436C422.045 135.43 427.379 135.292 432.708 135.585C432.965 135.599 433.238 135.548 433.478 135.609C433.987 135.741 434.751 135.169 434.989 135.872C435.285 136.741 434.597 137.704 433.659 137.945ZM436.726 132.33C436.507 133.936 436.495 133.994 434.734 133.988C431.203 133.978 427.673 133.871 424.142 133.851C421.755 133.837 419.368 133.938 416.981 133.925C414.95 133.914 414.897 133.835 414.581 131.963C414.475 131.332 414.399 130.698 414.297 129.979C417.58 130.106 420.797 130.227 423.965 129.9C428.077 129.476 432.118 130.267 436.196 130.161C436.675 130.148 436.871 130.261 436.823 130.717C436.767 131.253 436.798 131.798 436.726 132.33ZM423.222 108.644C422.55 110.076 422.024 111.537 421.931 113.105C421.87 114.12 421.935 115.116 422.405 116.065C422.838 116.94 423.58 117.497 424.589 117.556C425.699 117.622 426.595 117.112 427.068 116.169C427.947 114.423 427.683 112.622 427.213 110.839C426.93 109.764 426.619 108.681 425.712 107.862C425.44 107.617 425.543 107.406 425.699 107.145C426.469 105.86 428.389 105.566 429.565 106.575C430.82 107.652 431.237 109.084 431.488 110.558C431.703 111.823 431.822 113.101 431.773 114.119C431.833 118.928 430.271 123.111 428.327 127.2C428.142 127.589 428.205 128.25 427.659 128.334C426.648 128.488 425.599 128.556 424.582 128.48C424.288 128.458 424.017 127.843 423.788 127.472C421.067 123.051 418.947 118.438 418.956 113.261C418.96 111.627 419.366 109.987 420.231 108.503C420.865 107.416 422.067 107.161 423.204 107.805C423.733 108.105 423.335 108.404 423.222 108.644ZM424.717 108.84C425.749 110.839 426.25 112.72 425.868 114.73C425.759 115.307 425.588 115.993 424.706 115.991C423.836 115.988 423.694 115.336 423.55 114.74C423.052 112.691 423.799 110.855 424.717 108.84ZM442.97 117.463C442.176 118.98 440.66 119.957 439.524 121.219C438.744 122.085 437.787 122.765 436.77 123.369C435.883 123.895 435.455 124.572 435.515 125.557C435.569 126.43 435.48 127.31 435.508 128.185C435.525 128.715 435.33 128.889 434.747 128.844C433.06 128.714 431.37 128.623 429.567 128.51C430.531 126.461 431.381 124.44 432.076 122.366C433.526 118.035 433.891 113.657 432.829 109.212C432.576 108.151 432.118 107.164 431.379 106.296C429.525 104.117 426.632 104.056 424.685 106.164C424.433 106.437 424.318 106.77 423.741 106.558C420.536 105.381 419.168 106.729 418.201 109.539C417.051 112.884 417.207 116.215 418.435 119.545C419.582 122.657 420.628 125.798 422.756 128.731C420.46 128.731 418.33 128.713 416.201 128.744C415.655 128.753 415.526 128.575 415.492 128.119C415.369 126.508 415.151 124.907 414.739 123.33C414.577 122.711 414.249 122.341 413.565 122.141C408.232 120.58 405.836 117.083 405.137 112.118C404.49 107.524 407.057 104.481 410.135 101.452C417.267 94.435 433.171 94.6861 440.814 103.618C444.275 107.661 445.611 112.416 442.97 117.463Z" fill="#0E0816"/>
<path d="M411.424 103.64C410.786 103.65 410.325 103.968 409.907 104.356C407.829 106.276 407.02 108.653 406.916 111.281C406.854 112.202 406.986 113.097 407.284 113.969C407.444 114.436 407.535 115.112 408.269 114.951C409.066 114.776 408.737 114.106 408.688 113.602C408.682 113.536 408.645 113.474 408.628 113.409C407.928 110.927 408.457 108.607 409.871 106.463C410.374 105.7 411.151 105.088 411.804 104.408C411.949 104.257 412.134 104.115 411.987 103.891C411.863 103.705 411.668 103.636 411.424 103.64Z" fill="#0E0816"/>
<path d="M440.748 109.872C441.184 112.287 440.506 114.382 438.695 116.186C438.432 116.447 438.149 116.807 438.614 117.144C439.054 117.462 439.434 117.292 439.751 116.949C441.213 115.371 442.186 113.609 442.201 111.542C442.167 110.819 442.23 110.136 441.753 109.554C441.555 109.314 441.349 108.932 441.034 109.004C440.588 109.105 440.696 109.577 440.748 109.872Z" fill="#0E0816"/>
</g>
<path opacity="0.5" d="M1170.16 140.481C1171.45 141.292 1172.87 141.525 1174.35 141.292C1176 141.035 1177.17 140.174 1177.65 138.665C1178.19 136.99 1178.18 135.416 1176.63 134.106C1175.12 132.837 1173.25 131.914 1172.16 130.251C1168.13 127.294 1164.16 124.284 1159.77 121.793C1158.04 120.805 1156.22 120.841 1154.43 121.769C1151.87 123.1 1151.29 125.331 1152.9 127.582C1153.74 128.754 1154.81 129.738 1155.99 130.588C1160.67 133.942 1165.25 137.401 1170.16 140.481ZM1154.09 126.706C1153.53 125.852 1153 124.91 1153.77 123.991C1154.65 122.932 1155.86 122.294 1157.4 122.454C1158.1 122.527 1158.73 122.804 1159.32 123.159C1162.6 125.104 1165.71 127.261 1168.68 129.561C1169.73 130.376 1170.67 131.375 1171.71 132.256C1172.32 132.772 1172.5 133.586 1172.02 134.206C1171.46 134.927 1170.49 134.842 1169.69 134.537C1168.02 133.896 1166.53 132.957 1165.14 131.902C1162.67 130.034 1160.24 128.135 1157.79 126.257C1157.33 125.908 1156.64 125.444 1156.24 125.886C1155.78 126.384 1156.43 126.995 1156.87 127.328C1160.38 130.024 1163.65 132.996 1167.61 135.176C1168.77 135.815 1169.97 136.333 1171.42 136.113C1172.77 135.907 1173.65 135.312 1173.87 133.926C1174.32 134.236 1174.68 134.471 1175.02 134.724C1176.45 135.774 1176.76 137.511 1175.76 138.856C1174.94 139.957 1172.96 140.281 1171.46 139.527C1169.95 138.762 1168.56 137.807 1167.19 136.845C1163.81 134.469 1160.45 132.054 1157.12 129.624C1155.96 128.783 1154.86 127.881 1154.09 126.706Z" fill="#0D0615"/>
</g>
<defs>
<clipPath id="clip0_80_12">
<rect width="1280" height="832" fill="white"/>
</clipPath>
</defs>
</svg>
