<svg width="430" height="840" viewBox="0 0 430 840" fill="none" xmlns="http://www.w3.org/2000/svg">
<g clip-path="url(#clip0_80_12)">
<rect width="430" height="840" fill="#D9D9D9"/>
<path opacity="0.5" d="M99.577 232.091C99.37 232.392 99.164 232.699 98.935 233.037C98.9822 232.22 99.035 231.522 99.0604 230.817C99.1034 229.624 98.8758 229.196 98.4673 229.633C98.307 229.804 98.1813 230.224 97.9818 230.215C98.0078 229.542 98.0063 228.918 98.0609 228.335C98.1341 227.556 97.9269 226.999 97.8229 226.503C97.6868 225.854 97.4031 226.254 97.2209 226.73C96.7644 227.921 96.312 229.126 95.833 230.425C95.833 230.029 95.8357 229.633 95.8327 229.238C95.7984 224.748 95.8808 220.267 95.9372 215.783C95.996 211.095 95.9447 206.397 95.9769 201.705C96.0143 196.265 95.81 190.834 95.9315 185.393C95.9438 184.841 95.8688 184.335 95.592 184.349C95.3206 184.362 95.0488 184.265 94.7771 184.257C92.9218 184.198 91.0681 184.439 89.214 184.502C85.8059 184.617 82.397 184.514 78.9886 184.514C77.7285 184.514 76.4681 184.558 75.2079 184.567C73.8752 184.577 72.5422 184.57 71.1462 184.57C71.5293 183.095 71.9372 181.892 72.1585 180.374C72.258 179.693 72.5106 178.886 72.2153 178.244C71.9372 177.641 71.7225 178.481 71.5064 178.866C71.091 179.608 70.9417 179.421 70.8984 178.066C70.8939 177.931 70.8903 177.795 70.8897 177.659C70.8879 177.24 70.8799 176.798 70.7222 176.604C70.5475 176.388 70.4212 176.692 70.2997 177.013C70.0411 177.696 69.7899 178.399 69.4988 178.987C69.3044 179.38 69.2244 179.246 69.176 178.643C69.1166 177.902 69.1449 177.151 69.1207 176.408C69.0942 175.586 68.9317 175.347 68.6645 175.715C68.5907 175.816 68.5405 176.061 68.4369 175.921C68.1864 175.584 68.0254 176.035 67.9081 176.495C67.4031 178.474 66.7952 180.212 66.2275 182.045C65.856 183.244 65.5476 184.577 64.8357 184.381C64.3758 184.255 64.3033 184.517 64.3573 185.772C64.4436 187.769 64.2161 189.293 63.7174 190.785C62.8726 193.311 62.3011 196.4 61.6104 199.244C61.4915 199.734 61.4742 200.271 61.6035 200.767C61.7262 201.237 61.8959 201.262 62.0989 201.168C62.2957 201.077 62.4808 200.703 62.7006 200.872C62.5731 202.214 62.5092 203.521 62.5005 204.851C62.4976 205.32 62.5125 205.741 62.6797 205.99C62.8663 206.269 63.0037 205.992 63.1506 205.704C63.331 205.351 63.5257 205.052 63.7135 204.727C63.8204 204.543 63.93 204.453 63.9834 204.867C64.0865 205.661 64.2931 206.37 64.2862 207.253C64.2453 212.392 64.3731 217.518 64.4227 222.649C64.463 226.796 64.3594 230.945 64.391 235.088C64.4529 243.144 64.4484 251.207 64.644 259.254C64.6807 260.76 64.7992 261.157 65.3651 261.144C66.7142 261.112 68.0634 261.06 69.4125 261.022C72.0489 260.948 74.6851 260.861 77.3215 260.813C79.2535 260.778 81.1855 260.797 83.1175 260.793C84.2278 260.791 85.338 260.793 86.5268 260.793C86.39 261.415 86.3022 261.772 86.2309 262.153C86.1601 262.53 86.1311 262.935 86.2497 263.292C86.3679 263.647 86.5047 263.621 86.6543 263.422C86.8908 263.109 87.1446 262.943 87.4062 262.924C87.6929 262.902 87.8896 263.162 87.8604 264.103C87.8446 264.61 87.8481 265.125 87.8559 265.635C87.8729 266.739 88.1067 267.166 88.477 266.751C88.7138 266.485 88.9414 266.157 89.2197 265.797C89.2197 266.501 89.2083 267.077 89.2232 267.648C89.2349 268.092 89.2785 268.547 89.4615 268.706C89.6258 268.849 89.7407 268.579 89.8557 268.297C90.0859 267.732 90.3162 267.163 90.5592 266.641C91.2344 265.192 91.8785 263.65 92.4038 261.783C92.5525 261.254 92.7065 261.088 92.9353 261.102C93.629 261.144 94.3226 261.132 95.0166 261.151C95.3478 261.16 95.5774 260.805 95.5983 259.837C95.6559 257.188 95.7333 254.538 95.7366 251.888C95.7383 250.496 95.8727 249.366 96.2093 248.384C97.3529 245.047 98.2583 241.243 99.1055 237.319C99.3954 235.976 99.7087 234.67 100.002 233.332C100.086 232.947 100.135 232.486 99.9909 232.116C99.8657 231.792 99.7167 231.887 99.577 232.091ZM64.2919 198.243C64.2916 199.705 64.2871 201.168 64.2904 202.631C64.2913 203.012 64.2919 203.217 64.1002 203.143C63.7225 202.996 63.4331 203.715 63.0804 204.168C63.087 203.143 63.1357 202.317 63.2184 201.492C63.3874 199.806 63.1739 199.191 62.5447 199.477C62.4139 199.537 62.2927 199.782 62.1341 199.634C62.803 196.64 63.4459 193.62 64.2922 191.036C64.2922 193.449 64.2925 195.846 64.2919 198.243ZM68.0472 178.262C68.0992 178.063 68.1532 177.881 68.2587 178.071C68.3963 178.321 68.5173 177.994 68.6472 177.955C68.6546 178.017 68.6669 178.079 68.6678 178.141C68.6872 179.152 68.7466 180.221 69.0909 180.7C69.4537 181.206 69.7389 180.372 70.0139 179.815C70.1522 179.536 70.274 179.197 70.4224 178.839C70.5159 179.518 70.5795 180.208 70.8261 180.568C71.0608 180.911 71.3051 180.599 71.5703 180.664C71.3129 181.969 70.9677 183.024 70.6461 184.127C70.5762 184.366 70.4893 184.417 70.3848 184.41C69.0285 184.322 67.6722 184.24 66.3162 184.155C66.3075 184.154 66.2992 184.119 66.2621 184.036C66.8591 182.062 67.5133 180.302 68.0472 178.262ZM65.1005 185.798C65.0641 186.162 65.0038 186.455 64.8661 186.594C64.804 185.753 64.804 185.753 65.1005 185.798ZM64.8793 189.328C64.887 188.716 65.0802 188.422 65.165 187.951C65.5034 186.071 66.0262 185.411 66.797 185.585C67.7913 185.809 68.7956 185.713 69.7953 185.766C69.8879 185.771 70.013 185.627 70.0673 185.897C70.1226 186.173 70.0115 186.386 69.9595 186.598C69.2769 189.391 68.554 192.095 67.7677 194.683C66.8017 197.861 65.8339 201.044 64.9674 204.442C64.9342 204.572 64.8936 204.687 64.8145 204.946C64.7834 199.591 64.8145 194.46 64.8793 189.328ZM89.7542 266.691C89.7419 266.07 89.7452 265.594 89.721 265.129C89.6724 264.188 89.4911 263.944 89.1716 264.369C88.9196 264.705 88.6705 265.06 88.411 265.419C88.2799 261.971 88.0378 261.304 87.0586 261.681C87.113 261.21 87.1975 260.947 87.3877 260.948C88.8951 260.959 90.4025 260.954 92.0108 260.954C91.3506 263.389 90.5601 264.964 89.7542 266.691ZM95.128 259.398C95.1277 259.746 95.059 259.829 94.9351 259.825C94.3346 259.805 93.7341 259.816 93.1336 259.816C93.8535 257.392 94.5812 255.206 95.1286 252.79C95.1286 254.963 95.1292 257.181 95.128 259.398ZM95.3475 238.637C95.2653 242.069 95.3098 245.504 95.2874 248.937C95.2844 249.391 95.2588 249.786 95.1722 250.189C94.4388 253.608 93.4931 256.561 92.5121 259.442C92.4115 259.738 92.2995 259.733 92.1765 259.73C90.7542 259.706 89.3319 259.683 87.9097 259.66C87.8383 259.659 87.7463 259.73 87.7096 259.519C87.6636 259.256 87.7603 259.085 87.8087 258.913C88.7613 255.529 89.716 252.142 90.8029 249.072C91.9427 245.852 92.9383 242.295 94.0103 238.918C94.4325 237.588 94.8679 236.289 95.3519 234.807C95.3519 236.214 95.3764 237.43 95.3475 238.637ZM95.3179 225.83C95.311 227.731 95.3358 229.634 95.3594 231.534C95.3666 232.119 95.3086 232.572 95.1662 233.007C93.411 238.358 91.7922 244.035 89.988 249.273C88.9847 252.186 88.0843 255.353 87.2211 258.588C87.0165 259.355 86.7946 259.63 86.4483 259.614C84.5679 259.525 82.6866 259.45 80.8063 259.479C75.7099 259.557 70.6135 259.68 65.5174 259.826C65.2 259.835 65.1247 259.569 65.1158 258.775C65.0507 253.031 64.9811 247.289 64.9399 241.541C64.8987 235.825 64.9548 230.114 64.9387 224.402C64.9238 219.135 64.7897 213.874 64.7873 208.602C64.7867 207.07 65.1038 206.15 65.3732 205.117C66.4762 200.889 67.7173 196.96 68.9004 192.904C69.4865 190.894 69.9972 188.717 70.5323 186.596C70.6586 186.096 70.8025 185.922 71.0235 185.923C74.1135 185.941 77.2039 185.936 80.2939 185.936C80.2939 185.937 80.2939 185.94 80.2939 185.941C83.2952 185.941 86.2975 186.046 89.2979 185.897C90.7874 185.823 92.2786 185.803 93.7681 185.621C94.2468 185.562 94.7281 185.696 95.2086 185.71C95.3875 185.715 95.4305 185.898 95.4305 186.379C95.4341 193.887 95.4326 201.394 95.4591 208.9C95.4786 214.55 95.3382 220.186 95.3179 225.83ZM95.842 247.339C95.842 244.274 95.8378 241.165 95.8438 238.057C95.8467 236.595 95.8706 235.134 95.8823 233.673C95.8853 233.301 95.8766 232.958 95.9784 232.628C96.4556 231.077 96.9149 229.482 97.5243 228.11C97.5455 228.882 97.5025 229.555 97.4682 230.238C97.4389 230.818 97.3568 231.48 97.582 231.929C97.8032 232.369 98.0045 232.009 98.2043 231.742C98.2995 231.615 98.3954 231.49 98.5005 231.352C98.5184 231.931 98.4518 232.411 98.4175 232.907C98.2995 234.618 98.4942 235.114 99.1368 234.662C98.0944 239.058 97.258 243.781 95.842 247.339Z" fill="#0D0615"/>
<g opacity="0.5">
<path d="M350.139 354.898C349.814 353.704 349.338 353.034 348.844 352.315C349.07 351.728 349.275 351.197 349.479 350.662C350.598 347.738 350.598 344.318 349.598 341.055C348.263 336.702 346.542 335.189 344.511 336.71C344.263 333.212 343.512 330.99 342.232 330.328C341.271 329.831 340.346 330.577 339.454 331.554C338.854 332.212 338.342 333.283 337.82 334.351C337.432 329.964 336.709 328.445 335.708 328.172C334.112 327.736 333.34 330.38 333.001 334.39C332.104 332.34 331.136 331.019 330.027 330.443C328.931 329.874 327.946 330.22 327.1 332.424C326.644 333.614 326.4 335.058 326.317 336.743C325.835 336.308 325.365 336.129 324.899 336.141C323.322 336.181 322.026 338.025 321.11 341.441C320.217 344.769 320.261 347.805 321.369 350.73C321.564 351.242 321.761 351.747 321.971 352.29C321.901 352.416 321.855 352.518 321.803 352.585C320.327 354.516 319.845 358.059 319.813 362.195C319.79 365.198 320.378 367.572 321.089 369.665C322.004 372.362 323.155 373.443 324.496 373.102C325.31 372.895 326.048 372.134 326.774 371.029C326.925 374.459 327.842 377.192 328.977 377.757C330.205 378.367 331.29 377.587 332.225 375.196C332.647 377.649 333.329 378.928 334.275 379.29C334.73 379.464 335.18 379.339 335.631 379.42C336.154 379.515 336.66 379.307 337.156 378.898C337.85 378.325 338.281 376.923 338.605 375.219C339.668 377.858 340.874 378.632 342.197 377.458C343.295 376.484 343.868 374.17 344.062 371.063C344.185 371.236 344.305 371.402 344.423 371.572C345.179 372.662 345.99 373.242 346.837 373.192C348.101 373.119 349.124 371.643 349.959 369.004C351.431 364.355 351.231 358.91 350.139 354.898ZM346.325 371.624C345.448 371.282 344.666 370.346 343.937 369.02C343.803 368.777 343.678 368.599 343.53 368.855C343.423 369.04 343.392 369.342 343.431 369.662C343.741 372.261 343.255 374.004 342.558 375.374C341.639 377.181 339.993 376.697 339.18 374.522C338.991 374.018 338.863 373.406 338.754 372.752C338.686 372.344 338.558 372.118 338.39 372.274C338.239 372.413 338.211 372.74 338.214 373.167C338.231 375.141 337.833 376.431 337.227 377.223C336.707 377.902 336.148 378.06 335.564 377.86C335.142 377.715 334.713 378.041 334.278 377.815C333.677 377.503 333.175 376.86 332.836 375.409C332.678 374.732 332.57 374.021 332.607 373.203C332.628 372.733 332.586 372.386 332.411 372.256C332.257 372.142 332.155 372.374 332.073 372.711C331.287 375.943 330.259 377.117 328.909 376.188C328.074 375.614 327.562 374.017 327.318 371.786C327.255 371.206 327.258 370.564 327.348 369.983C327.412 369.572 327.449 369.18 327.304 368.881C327.148 368.558 327.011 368.796 326.867 369.055C326.233 370.197 325.561 371.13 324.804 371.475C323.049 372.274 321.818 370.572 320.782 366.348C319.932 362.885 320.372 357.866 321.063 355.684C321.391 354.652 321.827 354.088 322.247 353.443C322.663 352.805 322.688 352.132 322.333 351.223C322.089 350.598 321.83 350.012 321.599 349.352C320.863 347.245 320.722 345.444 321.444 342.378C322.142 339.41 323.601 337.464 324.905 337.531C325.393 337.633 325.91 337.639 326.36 338.554C326.621 339.085 326.828 338.711 326.845 337.783C326.927 333.547 327.924 331.183 329.438 331.643C330.36 331.922 331.217 332.693 331.99 334.144C332.288 334.704 332.572 335.283 332.787 336.099C332.883 336.465 333.022 336.774 333.196 336.634C333.352 336.507 333.394 336.074 333.42 335.663C333.502 334.358 333.58 333.045 333.843 331.897C334.195 330.36 334.656 329.453 335.367 329.625C336.592 329.921 337.128 331.222 337.34 334.615C337.385 335.33 337.333 336.298 337.618 336.585C337.934 336.904 338.047 335.902 338.24 335.425C339.001 333.552 339.88 332.307 340.895 331.855C341.223 331.709 341.557 331.611 341.89 331.591C342.873 331.533 343.902 334.009 343.996 336.631C344.01 337.03 343.973 337.442 343.981 337.843C343.999 338.679 344.179 339.021 344.421 338.633C345.482 336.925 346.565 337.251 347.616 338.535C348.599 339.736 349.408 341.546 349.755 344.529C349.918 345.927 349.837 347.205 349.521 348.383C349.24 349.433 348.885 350.279 348.53 351.128C348.111 352.132 348.125 352.87 348.631 353.498C350.039 355.248 350.58 358.43 350.51 362.396C350.414 367.842 348.288 372.39 346.325 371.624Z" fill="#120F14"/>
<path d="M322.916 355.633C322.813 355.163 322.638 355.233 322.487 355.414C322.388 355.531 322.296 355.74 322.222 355.96C321.577 357.863 321.224 360.107 321.18 362.771C321.194 363.975 321.313 365.08 321.649 366.016C321.903 366.727 322.228 367.161 322.487 367.843C322.582 368.094 322.731 368.157 322.823 367.881C322.924 367.581 322.968 367.177 322.853 366.775C322.704 366.258 322.502 365.927 322.311 365.559C321.96 364.881 321.708 364.025 321.72 362.788C321.744 360.305 322.076 358.182 322.747 356.484C322.838 356.251 323.021 356.114 322.916 355.633Z" fill="#120F14"/>
<path d="M348.045 342.391C347.796 341.125 347.421 340.286 346.87 340.249C346.629 340.232 346.311 340.326 346.293 341.022C346.271 341.843 346.634 341.686 346.812 341.69C347.268 341.701 347.514 342.346 347.678 343.382C347.883 344.682 347.917 345.997 347.722 347.335C347.665 347.723 347.622 348.159 347.807 348.377C348.009 348.613 348.111 348.22 348.168 347.788C348.257 347.121 348.367 346.461 348.353 345.995C348.335 344.55 348.246 343.418 348.045 342.391Z" fill="#120F14"/>
<path d="M348.981 357.595C348.807 357.794 348.931 358.177 348.93 358.48C348.928 358.798 348.996 359.053 349.035 359.337C349.389 361.95 349.35 363.797 348.698 365.513C348.6 365.77 348.497 366.02 348.415 366.312C348.337 366.591 348.299 366.924 348.418 367.222C348.524 367.486 348.629 367.365 348.72 367.174C349.312 365.929 349.729 364.401 349.758 362.177C349.701 360.741 349.7 359.185 349.302 357.951C349.22 357.698 349.117 357.439 348.981 357.595Z" fill="#120F14"/>
<path d="M324.288 368.34C324.137 368.552 323.995 368.654 323.869 368.608C323.632 368.566 323.404 368.515 323.369 369.228C323.326 370.097 323.607 369.996 323.799 370.12C323.973 370.233 324.144 370.17 324.305 369.972C324.456 369.785 324.577 369.498 324.588 368.996C324.601 368.392 324.511 368.029 324.288 368.34Z" fill="#120F14"/>
<path d="M347.726 350.43C347.635 350.463 347.574 350.647 347.583 350.913C347.59 351.127 347.641 351.268 347.748 351.254C347.823 351.231 347.896 351.107 347.891 350.836C347.887 350.587 347.825 350.394 347.726 350.43Z" fill="#120F14"/>
</g>
<path opacity="0.5" d="M263.229 197.607C263.48 202.57 263.282 207.428 262.366 211.907C262.181 212.809 262.304 213.353 262.739 213.495C263.793 213.841 264.848 214.171 265.902 214.51C266.283 214.632 266.663 214.757 267.042 214.89C267.275 214.972 267.439 214.763 267.562 214.177C268.004 212.08 268.048 209.776 267.971 207.482C267.826 203.141 267.301 199.095 266.582 195.225C265.581 189.836 264.379 184.86 262.663 180.912C262.961 180.352 263.232 179.823 263.511 179.333C263.644 179.1 263.758 178.863 263.752 178.393C263.746 177.89 263.609 177.784 263.462 177.616C262.705 176.753 261.898 176.687 261.104 176.466C260.366 176.261 259.641 175.848 258.909 175.576C258.407 175.389 258.185 176.122 258.356 177.465C258.437 178.105 258.534 178.735 258.645 179.342C259.084 181.752 259.355 184.326 259.63 186.897C259.684 187.398 259.74 187.902 259.958 188.007C260.169 188.109 260.255 187.655 260.357 187.263C260.645 186.167 260.94 185.085 261.267 183.87C262.205 188.23 262.98 192.676 263.229 197.607ZM262.255 185.747C262.067 184.687 261.828 183.686 261.58 182.718C261.351 181.821 261.171 181.88 260.939 182.732C260.662 183.749 260.467 184.934 260.084 185.95C259.836 182.816 259.359 180.044 258.889 177.048C260.229 177.908 261.549 177.963 262.955 178.689C262.6 179.282 262.349 179.776 262.074 180.132C261.941 180.302 261.81 180.392 261.811 180.838C261.812 181.27 261.901 181.674 262.05 181.761C262.288 181.902 262.439 182.342 262.594 182.762C263.015 183.909 263.437 185.06 263.832 186.273C264.662 188.815 265.281 191.756 265.876 194.729C266.668 198.685 267.239 202.861 267.447 207.366C267.526 209.098 267.474 210.815 267.301 212.503C267.227 213.232 267.124 213.61 266.787 213.48C265.591 213.016 264.389 212.663 263.188 212.296C262.972 212.23 262.883 212.179 263.004 211.481C263.728 207.265 263.929 202.788 263.772 198.198C263.619 193.742 262.955 189.714 262.255 185.747Z" fill="#0D0615"/>
<path opacity="0.5" d="M107.076 604.732C107.573 605.23 108.034 605.975 108.477 606.79C108.583 606.986 108.605 607.186 108.612 607.53C108.659 609.768 108.748 611.993 108.973 614.159C109.158 615.949 109.828 616.723 110.421 615.826C110.809 615.239 111.164 614.506 111.56 613.946C111.714 613.729 111.789 613.764 111.913 613.992C112.282 614.669 112.674 615.228 113.097 615.607C113.728 616.173 113.838 616.104 114.068 614.423C115.164 606.401 116.539 598.672 117.391 590.394C117.578 588.574 117.856 586.826 117.945 584.995C117.947 584.326 117.889 583.708 117.728 583.366C117.561 583.009 117.387 583.519 117.222 583.707C117.177 583.758 117.137 583.847 117.098 583.933C116.635 584.962 116.131 585.82 115.619 586.651C113.693 589.779 111.871 593.35 109.97 596.583C108.928 598.356 107.942 600.347 106.974 602.406C106.539 603.332 106.389 604.044 107.076 604.732ZM110.218 614.398C110.388 613.361 110.521 612.547 110.664 611.673C110.843 612.035 111.009 612.371 111.197 612.75C110.88 613.282 110.584 613.782 110.218 614.398ZM117.297 586.422C117.17 588.342 116.869 590.098 116.684 591.952C115.966 599.163 114.669 605.766 113.792 612.812C113.581 614.508 113.546 614.52 112.954 613.778C112.22 612.859 111.558 611.621 110.928 610.235C110.69 609.711 110.692 609.301 110.852 608.644C111.602 605.554 112.54 602.866 113.341 599.894C114.592 595.255 116.069 591.119 117.297 586.422ZM115.684 589.68C115.255 591.055 114.792 592.361 114.402 593.817C113.201 598.304 111.816 602.391 110.64 606.93C110.27 608.361 109.997 609.864 109.915 611.634C109.876 612.496 109.791 613.359 109.611 614.303C109.371 613.111 109.358 611.89 109.288 610.711C109.226 609.677 109.197 608.627 109.122 607.601C109.084 607.084 109.183 606.853 109.289 606.575C110.243 604.056 111.21 601.572 112.147 599.008C113.093 596.42 114.007 593.742 114.943 591.126C115.153 590.54 115.398 590.05 115.684 589.68ZM114.585 590.019C112.833 595.374 110.979 600.449 109.059 605.341C108.971 605.564 108.908 605.901 108.756 605.57C108.337 604.656 107.839 604.116 107.311 603.364C109.626 598.348 112.178 594.494 114.585 590.019Z" fill="#0D0615"/>
<path opacity="0.5" d="M23.4025 432.07C23.1292 432.349 22.9038 432.808 22.7097 433.396C22.0674 435.344 22.4678 438.834 23.3992 439.401C23.4909 439.457 23.6184 439.398 23.6261 439.778C23.6342 440.171 23.6715 440.605 23.5306 440.91C23.4043 441.183 23.2672 441.424 23.1519 441.729C22.3567 443.826 22.4986 446.807 23.4586 448.26C23.7309 448.672 23.7154 449.106 23.4183 449.623C22.8471 450.616 22.6479 452.134 22.6565 453.897C22.6643 455.437 22.9136 456.574 23.4652 457.079C23.5999 457.202 23.6261 457.405 23.6333 457.747C23.642 458.174 23.5658 458.279 23.4332 458.435C22.8339 459.143 22.6201 460.498 22.6338 462.219C22.6458 463.694 22.8545 464.833 23.3434 465.502C23.7477 466.055 23.7739 467.283 23.4153 468.059C22.5269 469.982 21.9823 473.272 23.4927 475.8C23.7271 476.193 23.7304 476.634 23.4744 476.942C23.0549 477.445 22.8202 478.335 22.6712 479.467C22.369 481.765 22.6189 483.726 23.3362 484.633C23.4894 484.826 23.6661 484.903 23.6623 485.562C23.6584 486.193 23.6479 486.648 23.4025 487.06C22.7431 488.167 22.6371 491.323 23.2063 492.654C23.447 493.217 23.7501 493.558 23.6769 494.653C23.6688 494.773 23.7306 495.032 23.7736 495.057C24.1251 495.267 24.3927 495.974 24.7531 496.179C26.5346 497.186 28.3343 497.849 30.1362 498.494C31.8687 499.115 33.6063 499.341 35.355 499.366C37.559 499.397 39.7604 499.361 41.9612 499.032C42.5715 498.941 42.7059 498.538 42.7229 496.841C42.725 496.639 42.7262 496.435 42.7229 496.234C42.7098 495.386 42.8346 495.065 43.155 495.225C43.4823 495.39 43.68 495.032 43.6438 494.007C43.6334 493.708 43.6635 493.4 43.6635 493.097C43.6647 481.522 43.6644 469.948 43.6644 458.373C43.6671 458.373 43.6698 458.373 43.6725 458.373C43.6725 451.121 43.6719 443.87 43.6728 436.617C43.6734 432.158 43.6656 427.698 43.6841 423.239C43.6916 421.429 43.5262 420.824 42.8761 420.835C41.3941 420.863 39.9121 420.949 38.4301 420.958C33.8043 420.984 29.1785 421.05 24.553 420.822C23.7671 420.784 23.587 421.283 23.6211 423.423C23.6297 423.969 23.5972 424.276 23.3804 424.44C22.965 424.754 22.7133 425.539 22.6237 426.716C22.4783 428.623 22.7706 430.3 23.4076 431.181C23.4906 431.296 23.6184 431.294 23.6199 431.659C23.6214 432.056 23.4864 431.985 23.4025 432.07ZM23.6193 446.762C23.352 446.542 23.1917 446.098 23.1558 445.447C23.0919 444.281 23.2188 443.269 23.6193 442.354C23.6193 443.923 23.6193 445.3 23.6193 446.762ZM23.6303 455.626C22.9755 454.946 22.9605 452.434 23.6303 450.836C23.6303 452.516 23.6303 454.058 23.6303 455.626ZM23.5825 464.089C23.5363 464.122 23.467 464.011 23.4201 463.919C23.0343 463.165 23.0421 460.671 23.4294 459.943C23.5637 459.69 23.6545 459.622 23.6432 460.231C23.6324 460.804 23.6408 461.379 23.6408 461.952C23.642 461.952 23.6434 461.952 23.6449 461.952C23.6449 462.492 23.6476 463.032 23.6435 463.571C23.642 463.757 23.6751 464.023 23.5825 464.089ZM23.624 474.196C22.8933 472.776 22.8895 471.097 23.624 469.368C23.624 470.998 23.624 472.544 23.624 474.196ZM23.6423 483.511C23.3293 483.19 23.0791 482.871 23.0662 481.853C23.0492 480.489 23.0839 479.208 23.6423 478.337C23.6423 480.149 23.6423 481.785 23.6423 483.511ZM23.6491 491.753C23.2436 491.153 23.24 489.4 23.6491 488.528C23.6491 489.622 23.6491 490.679 23.6491 491.753ZM26.9201 495.987C26.5719 495.782 26.2246 495.569 25.8771 495.358C25.8409 495.336 25.8054 495.31 25.7696 495.285C25.7639 495.25 25.7582 495.215 25.7525 495.18C26.1551 495.18 26.5573 495.172 26.9598 495.185C27.0446 495.188 27.193 495.038 27.1942 495.386C27.1954 495.764 27.0978 496.091 26.9201 495.987ZM28.0318 495.755C27.9217 496.034 27.8536 496.541 27.6469 496.326C27.6003 496.277 27.549 496.182 27.5872 496.035C27.6861 495.658 27.7744 495.222 27.979 495.227C28.0271 495.228 28.0751 495.242 28.1847 495.26C28.108 495.511 28.0745 495.647 28.0318 495.755ZM28.945 495.715C28.8094 496.166 28.7186 496.854 28.377 496.438C28.5589 496.048 28.6064 495.451 28.8166 495.266C28.8793 495.211 28.9381 495.175 28.9877 495.312C29.0567 495.503 28.9778 495.606 28.945 495.715ZM30.2195 495.794C29.9785 496.885 29.662 497.366 29.194 496.632C29.4013 495.665 29.6793 495.061 30.1191 495.199C30.1833 495.219 30.2451 495.202 30.2795 495.361C30.3216 495.554 30.2493 495.659 30.2195 495.794ZM30.3951 497.241C30.2858 496.962 30.4115 496.812 30.4628 496.689C30.7122 496.095 30.8089 494.815 31.4026 495.353C31.1284 496.021 30.8905 496.59 30.6569 497.175C30.5712 497.39 30.4825 497.464 30.3951 497.241ZM31.2067 497.613C31.4772 496.827 31.7549 496.021 32.0323 495.215C31.766 496.043 31.7301 497.592 31.2067 497.613ZM32.2951 496.747C32.5454 495.376 32.5453 495.376 32.8084 495.329C32.6997 495.974 32.5648 496.347 32.2951 496.747ZM32.6209 497.736C32.8971 496.927 33.1473 496.101 33.4352 495.39C33.5753 495.043 33.7849 495.302 33.9751 495.435C33.5364 496.253 33.4737 498.656 32.6209 497.736ZM33.8557 497.914C34.251 496.825 34.3917 494.813 35.2331 495.303C34.7772 496.289 34.5777 498.072 33.8557 497.914ZM34.9217 497.94C35.3792 497.16 35.4589 495.069 36.1788 495.271C35.7375 496.101 35.4941 497.613 34.9217 497.94ZM36.5336 497.837C36.3255 498.319 36.0227 497.926 35.7486 497.89C36.2714 496.936 36.5578 494.897 37.4085 495.25C37.098 496.188 36.8462 497.111 36.5336 497.837ZM37.0239 498.156C37.1953 497.243 37.5241 496.833 37.6519 496.102C37.8397 495.028 38.1228 495.135 38.4925 495.25C38.2219 496.275 37.877 496.95 37.6513 497.928C37.5214 498.49 37.2759 498.062 37.0239 498.156ZM38.7368 497.907C38.6212 498.274 38.3253 498.151 37.9863 498.079C38.6083 497.191 38.7359 494.812 39.6087 495.285C39.3558 496.298 39.0139 497.028 38.7368 497.907ZM39.2966 497.908C39.6123 496.993 39.8954 496.16 40.1853 495.346C40.2465 495.175 40.3531 495.106 40.4182 495.28C40.5165 495.542 40.3872 495.683 40.3418 495.835C40.1859 496.358 40.0088 496.834 39.8619 497.375C39.7278 497.867 39.5675 498.051 39.2966 497.908ZM40.3065 497.947C40.5628 496.855 40.7939 495.691 41.2899 495.288C40.9611 496.171 40.738 497.359 40.3065 497.947ZM41.5822 497.595C41.5034 498.107 41.2824 497.854 41.1035 497.866C41.4207 496.881 41.6835 495.732 42.1573 495.267C41.9868 496.111 41.7193 496.701 41.5822 497.595ZM24.1114 442.561C24.0997 441.815 24.2057 441.734 24.4318 441.812C24.6722 441.896 24.869 442.262 25.0908 442.456C25.1676 442.524 25.2336 442.764 25.3205 442.515C25.4026 442.281 25.3838 442.02 25.3491 441.755C25.2425 440.936 24.9878 440.694 24.7137 440.539C24.593 440.471 24.4679 440.365 24.3491 440.397C24.1326 440.454 24.112 440.158 24.1132 439.68C24.1182 437.706 24.1191 435.732 24.1078 433.759C24.1048 433.246 24.1559 433.137 24.3395 433.195C24.5927 433.275 24.7707 433.652 24.9466 434.088C25.0171 434.262 25.0896 434.601 25.1894 434.428C25.301 434.235 25.2882 433.88 25.2515 433.515C25.1305 432.312 24.7668 431.998 24.4004 431.879C24.1484 431.797 24.1027 431.563 24.1081 430.952C24.1212 429.422 24.1108 427.889 24.1176 426.358C24.1185 426.121 24.0493 425.767 24.1854 425.663C24.2986 425.576 24.4067 425.725 24.4745 425.996C24.579 426.414 24.6898 426.829 24.7689 427.283C24.8149 427.549 24.8424 427.802 24.9648 427.766C25.0995 427.727 25.1335 427.408 25.1649 427.114C25.2697 426.132 24.8869 424.705 24.4142 424.347C24.2523 424.225 24.092 424.274 24.1027 423.541C24.1215 422.228 24.0991 422.222 24.5972 422.228C28.3672 422.277 32.1369 422.353 35.9068 422.365C38.2166 422.373 40.5266 422.3 42.8361 422.211C43.1054 422.2 43.181 422.459 43.1837 423.085C43.1917 425.017 43.2049 426.948 43.204 428.88C43.2016 434.923 43.1926 440.965 43.1884 447.008C43.1861 450.774 43.1879 454.54 43.1879 458.307C43.1813 458.307 43.1747 458.307 43.1681 458.307C43.1681 468.402 43.1681 478.497 43.1681 488.592C43.1681 490.056 43.1562 491.52 43.1729 492.982C43.1798 493.567 43.1248 493.724 42.9098 493.722C40.2743 493.703 37.6391 493.714 35.0035 493.714C33.1748 493.715 31.3461 493.714 29.5174 493.712C27.8165 493.71 26.1157 493.696 24.4148 493.717C24.2045 493.719 24.1051 493.665 24.1147 492.976C24.1356 491.481 24.1308 489.981 24.1159 488.485C24.1099 487.88 24.2022 487.71 24.3965 487.725C24.7456 487.754 25.0843 487.729 25.2467 488.894C25.3327 489.51 25.4877 489.34 25.5862 488.811C25.7657 487.852 25.5143 486.614 25.0717 486.367C24.8436 486.24 24.6062 486.168 24.3739 486.182C24.1878 486.195 24.1144 486.12 24.1171 485.546C24.1284 483.301 24.1281 481.055 24.1144 478.81C24.1108 478.234 24.1839 478.091 24.3676 478.197C24.6456 478.357 24.9314 478.456 25.0377 479.388C25.0663 479.64 25.1177 480.027 25.2551 479.99C25.4064 479.95 25.4253 479.541 25.4599 479.227C25.5486 478.421 25.4067 477.593 25.1096 477.211C24.8731 476.906 24.6229 476.684 24.3598 476.686C24.1586 476.687 24.1153 476.44 24.1171 475.939C24.1248 473.829 24.1254 471.719 24.1165 469.609C24.1141 469.03 24.1753 468.912 24.3747 469.082C24.7044 469.364 24.9547 469.967 25.213 470.539C25.2819 470.692 25.3393 470.924 25.43 470.829C25.5349 470.719 25.5438 470.394 25.5522 470.13C25.5665 469.681 25.4736 469.361 25.3539 469.092C25.0541 468.419 24.7388 467.832 24.3365 467.743C24.1702 467.706 24.1135 467.498 24.1153 467.018C24.1239 464.67 24.1269 462.321 24.109 459.974C24.1042 459.326 24.2147 459.349 24.3757 459.389C24.6805 459.466 24.8964 459.945 25.0926 460.534C25.155 460.721 25.2028 461.104 25.3172 460.938C25.4235 460.784 25.4656 460.436 25.4677 460.078C25.4704 459.623 25.3835 459.311 25.2682 459.034C24.9962 458.38 24.6674 458.114 24.318 458.019C24.1956 457.986 24.1111 457.984 24.1129 457.53C24.1212 455.423 24.1269 453.317 24.1117 451.211C24.1072 450.585 24.1938 450.532 24.3709 450.657C24.613 450.829 24.8349 451.108 25.0308 451.542C25.104 451.704 25.1771 451.979 25.2852 451.752C25.3826 451.547 25.3963 451.231 25.3754 450.914C25.3327 450.272 25.1538 449.963 24.9645 449.691C24.9102 449.613 24.851 449.56 24.7937 449.5C24.5784 449.275 24.246 449.446 24.1547 448.953C24.0487 448.38 24.1162 447.56 24.115 446.847C24.1147 445.42 24.1341 443.989 24.1114 442.561ZM23.6148 429.651C23.6148 429.672 23.5999 429.692 23.5921 429.713C23.1579 429.046 22.9528 427.454 23.1737 426.404C23.2559 426.014 23.3884 425.637 23.5512 425.735C23.6909 425.821 23.6258 426.311 23.627 426.619C23.6306 427.63 23.6208 428.641 23.6148 429.651ZM23.6217 437.357C23.6282 438.041 23.5165 437.996 23.3517 437.785C22.9808 437.311 22.8232 435.15 23.1179 434.308C23.2388 433.962 23.369 433.564 23.6184 433.408C23.6181 434.786 23.6094 436.072 23.6217 437.357Z" fill="#0D0615"/>
<g opacity="0.5">
<path d="M54.7901 810.607C54.5843 810.67 54.398 810.905 54.3541 811.531C54.3117 812.135 54.4706 812.458 54.6315 812.737C54.8925 813.188 55.155 813.632 55.4202 814.065C55.5539 814.284 55.5853 814.494 55.4664 814.841C55.272 815.41 55.0824 815.994 54.9063 816.604C54.7946 816.991 54.6551 817.403 54.779 817.973C54.8892 818.482 55.0708 818.409 55.2425 818.384C56.0932 818.256 56.9431 818.019 57.7965 818.194C57.9067 818.216 58.0002 818.124 58.0641 817.921C58.2901 817.204 58.5589 816.531 58.6777 815.647C58.7562 815.063 58.8673 815.057 59.0298 815.057C59.7228 815.06 60.4159 815.058 61.109 815.058C61.109 815.067 61.109 815.077 61.109 815.086C61.7898 815.086 62.4707 815.092 63.1512 815.082C63.339 815.079 63.6114 815.257 63.6102 814.471C63.6093 813.828 63.3629 813.726 63.1599 813.681C63.0861 813.664 63.0115 813.672 62.9371 813.671C61.6375 813.665 60.338 813.636 59.0384 813.673C58.773 813.681 58.6652 813.477 58.5926 812.766C58.5012 811.869 58.4663 810.723 57.9736 810.691C56.9123 810.623 55.852 810.282 54.7901 810.607ZM56.7066 815.001C57.2038 815.17 57.7144 815.035 58.2244 815.035C58.2152 815.179 58.2164 815.243 58.2071 815.292C57.9428 816.734 57.4958 816.951 56.9664 816.758C56.7239 816.669 56.4722 816.747 56.2252 816.781C55.998 816.812 55.7716 816.886 55.5187 816.947C55.7997 815.594 56.1189 814.801 56.7066 815.001ZM57.8114 812.231C58.1095 812.262 58.0288 813.067 58.1796 813.733C57.1393 813.331 56.0855 814.533 55.2658 812.068C56.1291 811.9 56.9702 812.143 57.8114 812.231Z" fill="#0E0615"/>
<path d="M70.9865 816.736C71.0107 817.501 71.1516 817.966 71.4201 817.69C71.9845 817.108 72.5629 816.579 73.0389 815.485C73.3479 814.775 73.3551 813.567 73.0341 812.892C72.7211 812.234 72.3754 811.712 72.0185 811.266C71.2439 810.297 71.0698 810.595 71.025 812.933C71.0167 813.374 71.0005 813.571 70.8017 813.563C69.8757 813.521 68.9491 813.544 68.0228 813.544C68.0228 813.581 68.0228 813.618 68.0228 813.654C67.181 813.654 66.3389 813.654 65.4968 813.654C65.3729 813.654 65.2493 813.654 65.1254 813.661C64.9629 813.67 64.8154 813.817 64.8017 814.307C64.7864 814.85 64.9686 814.942 65.1069 815.003C65.2765 815.078 65.4526 815.051 65.6258 815.046C67.1706 815.001 68.7156 814.951 70.2603 814.905C70.4831 814.899 70.7512 814.697 70.9172 814.965C71.1391 815.321 70.9674 816.129 70.9865 816.736ZM71.5798 812.389C71.8095 812.705 72.0287 813.008 72.2837 813.36C71.5834 813.746 71.5207 813.661 71.5798 812.389ZM71.9125 814.878C72.0669 814.934 72.226 814.887 72.4921 814.887C72.1466 815.538 71.8626 815.814 71.5712 816.099C71.461 815.172 71.5461 814.743 71.9125 814.878Z" fill="#0D0615"/>
</g>
<path opacity="0.5" d="M314.162 824.921C314.898 824.938 315.635 824.686 316.372 824.554C317.52 824.349 318.67 824.209 319.814 823.91C320.336 823.774 320.736 823.532 320.617 821.632C320.613 821.566 320.612 821.493 320.618 821.429C320.948 817.589 321.106 813.68 321.169 809.752C321.202 807.695 321.416 805.686 321.314 803.586C321.269 802.664 321.124 802.545 320.865 802.536C318.483 802.451 316.102 802.352 313.72 802.281C312.707 802.25 311.694 802.276 310.68 802.276C310.68 802.346 310.68 802.418 310.68 802.488C310.383 802.488 310.086 802.481 309.789 802.49C308.985 802.513 308.18 802.55 307.375 802.568C307.121 802.574 307.033 802.853 306.994 803.593C306.92 805.011 307.054 806.357 307.092 807.733C307.176 810.804 307.272 813.875 307.395 816.936C307.457 818.483 307.658 820.006 307.667 821.546C307.677 823.358 307.873 823.758 308.584 823.937C309.581 824.189 310.582 824.321 311.581 824.5C312.441 824.655 313.301 824.903 314.162 824.921ZM320.343 817.341C319.782 814.62 319.105 812.137 318.532 809.483C319.259 807.999 320.068 806.691 320.822 804.944C320.61 809.133 320.624 813.254 320.343 817.341ZM320.487 803.963C319.261 806.566 318.067 808.824 316.726 810.488C316.053 811.324 315.414 812.376 314.767 813.372C314.351 814.013 313.965 813.981 313.545 813.357C312.393 811.649 311.209 810.095 310.075 808.306C309.307 807.094 308.588 805.634 307.848 803.969C312.072 803.606 316.235 803.618 320.487 803.963ZM307.493 804.924C308.28 806.73 309.066 808.012 309.787 809.485C309.214 812.116 308.547 814.604 307.977 817.311C307.706 813.279 307.705 809.208 307.493 804.924ZM308.174 820.768C308.09 819.814 308.168 819.085 308.35 818.295C308.899 815.921 309.437 813.527 309.957 811.105C310.124 810.332 310.244 810.112 310.579 810.565C311.498 811.809 312.397 813.158 313.295 814.511C313.873 815.381 314.447 815.38 315.024 814.51C315.954 813.105 316.882 811.693 317.84 810.433C318.056 810.15 318.165 810.229 318.284 810.772C318.885 813.498 319.488 816.223 320.109 818.913C320.243 819.491 320.182 820.013 320.161 820.565C320.145 821.002 320.068 821.434 320.075 821.861C320.085 822.465 319.991 822.434 319.816 822.46C318.31 822.684 316.804 822.969 315.298 823.204C314.916 823.264 314.532 823.213 314.148 823.213C314.148 823.272 314.147 823.331 314.147 823.39C312.394 823.088 310.642 822.778 308.888 822.488C308.294 822.39 308.318 822.396 308.174 820.768Z" fill="#0D0614"/>
<g opacity="0.5">
<path d="M363.148 530.953C362.628 531.033 362.117 531.29 361.627 531.782C359.16 534.262 357.704 539.13 357.468 546.264C357.239 553.18 358.3 558.66 360.489 562.221C361.972 564.636 363.606 565.125 365.316 564.47C367.311 563.705 368.858 561.175 369.945 556.483C371.574 549.453 370.911 539.429 368.478 534.435C367.481 532.389 366.37 531.212 365.133 530.955C364.935 530.914 364.875 530.751 364.901 530.244C364.915 529.979 364.925 529.698 364.908 529.439C364.859 528.709 364.982 528.503 365.227 528.48C365.572 528.448 365.916 528.34 366.26 528.253C366.803 528.117 367.037 527.452 366.993 526.021C366.918 523.511 366.836 523.384 366.179 523.374C365.5 523.364 364.821 523.567 364.129 523.461C363.46 523.565 362.782 523.407 362.103 523.361C361.52 523.323 361.318 523.873 361.294 525.488C361.289 525.794 361.286 526.101 361.29 526.407C361.303 527.466 361.481 528.049 361.863 528.19C362.218 528.32 362.577 528.488 362.932 528.456C363.319 528.421 363.441 528.827 363.377 529.814C363.366 529.979 363.37 530.156 363.379 530.323C363.407 530.836 363.316 530.928 363.148 530.953ZM362.052 526.844C361.609 526.711 361.782 525.871 361.76 525.257C361.728 524.354 361.964 524.765 362.106 524.777C363.56 524.902 365.014 524.984 366.481 524.684C366.545 526.682 366.543 526.632 365.887 526.899C364.606 527.421 363.331 527.228 362.052 526.844ZM364.132 530.947C363.775 530.897 363.946 530.169 363.931 529.753C363.918 529.392 363.816 528.747 364.128 528.748C364.499 528.749 364.28 529.517 364.359 529.895C364.296 530.285 364.48 530.994 364.132 530.947ZM363.42 532.451C363.98 532.376 364.539 532.552 365.102 532.387C365.812 532.18 366.497 532.854 367.131 533.731C369.227 536.63 370.271 541.359 370.343 547.835C370.284 551.978 369.755 555.604 368.654 558.567C367.624 561.338 366.383 562.67 364.952 563.018C363.631 563.341 362.354 563.045 361.154 561.51C358.985 558.736 357.728 552.524 357.962 546.029C358.194 539.604 359.895 534.258 362.226 532.678C362.616 532.413 363.024 532.504 363.42 532.451Z" fill="#0D0615"/>
<path d="M360.402 558.848C361.671 561.832 363.185 562.619 364.812 562.223C366.712 561.76 368.186 559.347 369.081 554.719C370.048 549.713 369.904 544.688 368.736 540.044C367.633 535.655 366.038 533.675 364.114 533.619C362.89 533.628 361.772 534.551 360.783 536.527C358.076 541.937 357.789 552.704 360.402 558.848ZM367.904 539.539C369.092 543.175 369.452 547.478 368.873 552.128C368.29 556.814 367.04 559.555 365.277 560.542C364.899 560.754 364.517 560.796 364.271 560.758C362.515 560.851 361.157 559.353 360.132 555.836C358.829 551.37 358.822 544.921 360.107 540.374C362.034 533.559 365.803 533.11 367.904 539.539Z" fill="#0D0615"/>
<path d="M361.985 544.953C362.646 546.403 363.201 548.136 363.761 549.86C364.078 550.834 364.188 550.839 364.507 549.874C365.088 548.11 365.658 546.32 366.34 544.835C366.47 544.552 366.535 544.149 366.586 543.669C366.541 543.455 366.546 543.035 366.371 543.309C366.232 543.526 366.086 543.718 365.959 543.978C365.369 545.181 364.882 546.684 364.407 548.202C364.202 548.859 364.112 549.014 363.874 548.234C363.391 546.648 362.89 545.08 362.265 543.886C362.116 543.601 361.916 542.883 361.754 543.436C361.604 543.949 361.812 544.573 361.985 544.953Z" fill="#0E0715"/>
</g>
<g opacity="0.5">
<path d="M148.599 103.926C147.588 99.9975 146.109 97.585 144.369 96.6088C141.787 95.1601 139.398 95.9862 137.432 101.349C136.318 104.386 135.437 107.698 135.586 112.391C135.753 117.686 136.407 122.02 138.359 124.066C138.701 124.424 138.929 124.999 138.911 126.065C138.885 127.597 139.346 129.241 138.775 130.655C138.755 130.704 138.773 130.854 138.763 130.948C138.66 131.882 138.688 132.845 138.755 133.757C138.84 134.909 138.862 136.262 139.44 136.569C139.59 136.648 139.501 136.991 139.492 137.241C139.421 139.29 139.75 140.544 140.478 140.989C140.635 141.085 140.795 141.14 140.953 141.218C141.842 141.659 142.731 141.11 143.531 141.219C144.423 141.239 145.222 141.217 145.996 140.472C146.3 140.18 146.475 139.687 146.523 138.83C146.551 138.327 146.583 137.826 146.602 137.321C146.616 136.958 146.647 136.686 146.794 136.557C147.067 136.318 147.148 135.688 147.194 134.985C147.271 133.807 147.258 132.616 147.278 131.429C147.289 130.75 147.236 130.186 146.964 130.031C146.819 129.949 146.832 129.701 146.834 129.433C146.84 128.52 146.851 127.607 146.854 126.694C146.856 126.174 146.927 125.811 147.096 125.533C147.459 124.936 147.781 124.189 148.054 123.298C148.466 121.954 148.997 120.879 149.287 119.258C150.276 113.739 149.794 108.566 148.599 103.926ZM145.682 139.272C144.996 139.802 144.292 139.802 143.587 139.756C142.748 139.703 141.909 140.171 141.069 139.765C140.189 139.339 140.046 139.397 140.029 137.311C140.028 137.155 139.987 137.002 139.949 136.738C141.781 136.732 143.573 136.592 145.363 136.889C145.449 136.903 145.541 136.851 145.621 136.913C145.792 137.046 146.049 136.469 146.129 137.178C146.229 138.056 145.997 139.028 145.682 139.272ZM146.713 133.602C146.639 135.223 146.635 135.282 146.043 135.277C144.857 135.266 143.671 135.158 142.485 135.138C141.683 135.124 140.881 135.226 140.08 135.213C139.397 135.201 139.379 135.122 139.273 133.232C139.237 132.595 139.212 131.954 139.178 131.229C140.281 131.357 141.361 131.479 142.426 131.149C143.807 130.721 145.165 131.52 146.535 131.412C146.695 131.399 146.761 131.514 146.745 131.974C146.726 132.516 146.737 133.065 146.713 133.602ZM142.176 109.689C141.95 111.134 141.774 112.61 141.742 114.193C141.722 115.218 141.744 116.222 141.902 117.181C142.047 118.064 142.296 118.627 142.635 118.687C143.008 118.753 143.309 118.238 143.468 117.286C143.763 115.523 143.674 113.705 143.517 111.905C143.422 110.819 143.317 109.726 143.012 108.9C142.921 108.652 142.956 108.439 143.008 108.175C143.267 106.877 143.912 106.581 144.307 107.6C144.729 108.687 144.869 110.133 144.953 111.621C145.025 112.898 145.065 114.189 145.049 115.216C145.069 120.071 144.544 124.295 143.891 128.423C143.829 128.816 143.85 129.484 143.666 129.568C143.327 129.723 142.975 129.792 142.633 129.716C142.534 129.694 142.443 129.073 142.366 128.698C141.452 124.234 140.74 119.577 140.743 114.351C140.744 112.7 140.881 111.045 141.171 109.546C141.384 108.448 141.788 108.192 142.17 108.841C142.348 109.145 142.214 109.446 142.176 109.689ZM142.678 109.886C143.025 111.904 143.193 113.804 143.065 115.833C143.028 116.416 142.971 117.108 142.674 117.106C142.382 117.103 142.335 116.445 142.286 115.843C142.119 113.775 142.37 111.921 142.678 109.886ZM148.81 118.592C148.543 120.124 148.034 121.111 147.653 122.385C147.39 123.259 147.069 123.946 146.727 124.555C146.429 125.086 146.286 125.77 146.306 126.764C146.324 127.645 146.294 128.534 146.303 129.417C146.309 129.953 146.243 130.128 146.048 130.083C145.481 129.951 144.913 129.86 144.308 129.745C144.632 127.676 144.917 125.636 145.151 123.542C145.638 119.17 145.76 114.75 145.403 110.262C145.318 109.191 145.165 108.194 144.916 107.318C144.294 105.118 143.322 105.056 142.668 107.185C142.583 107.461 142.544 107.796 142.35 107.582C141.274 106.394 140.814 107.755 140.489 110.592C140.103 113.969 140.155 117.332 140.568 120.695C140.953 123.837 141.305 127.008 142.019 129.969C141.248 129.969 140.532 129.95 139.817 129.982C139.634 129.991 139.591 129.812 139.579 129.351C139.538 127.724 139.465 126.108 139.326 124.516C139.272 123.891 139.162 123.518 138.932 123.316C137.14 121.739 136.336 118.208 136.101 113.196C135.883 108.557 136.746 105.485 137.78 102.427C140.175 95.343 145.518 95.5965 148.086 104.614C149.249 108.696 149.697 113.497 148.81 118.592Z" fill="#0E0816"/>
<path d="M138.213 104.636C137.998 104.647 137.844 104.968 137.703 105.359C137.005 107.298 136.733 109.698 136.698 112.351C136.678 113.281 136.722 114.184 136.822 115.065C136.876 115.537 136.906 116.218 137.153 116.056C137.42 115.88 137.31 115.204 137.294 114.694C137.291 114.628 137.279 114.565 137.273 114.499C137.038 111.994 137.216 109.652 137.691 107.487C137.86 106.717 138.121 106.098 138.34 105.412C138.389 105.26 138.451 105.116 138.402 104.89C138.36 104.702 138.295 104.632 138.213 104.636Z" fill="#0E0816"/>
<path d="M148.064 110.928C148.21 113.367 147.982 115.482 147.374 117.303C147.285 117.567 147.19 117.93 147.347 118.27C147.494 118.591 147.622 118.419 147.729 118.073C148.22 116.48 148.547 114.702 148.551 112.615C148.54 111.885 148.561 111.195 148.401 110.607C148.335 110.365 148.265 109.979 148.159 110.052C148.01 110.154 148.046 110.63 148.064 110.928Z" fill="#0E0816"/>
</g>
<path opacity="0.5" d="M393.1 141.831C393.534 142.651 394.01 142.886 394.509 142.651C395.061 142.391 395.457 141.522 395.618 139.999C395.798 138.307 395.796 136.718 395.273 135.396C394.765 134.114 394.139 133.183 393.774 131.504C392.417 128.518 391.085 125.479 389.612 122.964C389.027 121.967 388.419 122.003 387.817 122.94C386.955 124.283 386.761 126.536 387.303 128.809C387.585 129.992 387.943 130.986 388.341 131.843C389.912 135.229 391.452 138.722 393.1 141.831ZM387.702 127.925C387.514 127.062 387.336 126.111 387.593 125.183C387.89 124.114 388.296 123.47 388.813 123.631C389.05 123.705 389.259 123.985 389.46 124.343C390.559 126.307 391.605 128.485 392.602 130.807C392.955 131.63 393.273 132.638 393.621 133.528C393.825 134.048 393.888 134.871 393.726 135.496C393.537 136.224 393.211 136.138 392.944 135.831C392.382 135.184 391.881 134.235 391.413 133.17C390.586 131.285 389.768 129.367 388.944 127.471C388.79 127.118 388.56 126.651 388.423 127.096C388.268 127.6 388.49 128.216 388.636 128.552C389.815 131.274 390.914 134.275 392.244 136.475C392.634 137.121 393.037 137.644 393.524 137.421C393.977 137.214 394.273 136.613 394.346 135.214C394.497 135.526 394.617 135.764 394.733 136.019C395.214 137.079 395.318 138.833 394.981 140.191C394.705 141.303 394.042 141.63 393.539 140.868C393.029 140.096 392.563 139.132 392.104 138.161C390.967 135.762 389.84 133.324 388.719 130.87C388.332 130.021 387.96 129.111 387.702 127.925Z" fill="#0D0615"/>
</g>
<defs>
<clipPath id="clip0_80_12">
<rect width="430" height="840" fill="white"/>
</clipPath>
</defs>
</svg>
